<svg xmlns="http://www.w3.org/2000/svg" width="257.751" height="52.511" viewBox="0 0 257.751 52.511">
  <g id="Layer_1" data-name="Layer 1" transform="translate(0 2.089)">
    <g id="Group_175" data-name="Group 175" transform="translate(68.227 -2.089)">
      <path id="Path_1" data-name="Path 1" d="M34.581,49.781H27V1.77h7.581Z" transform="translate(-27 2.726)" fill="#fff"/>
      <path id="Path_2" data-name="Path 2" d="M38.938,6.755l.2,4.574A13.292,13.292,0,0,1,50.056,6.072q11.548,0,11.674,13.039V43.218H55.489V19.086a8.389,8.389,0,0,0-1.794-5.837,7.227,7.227,0,0,0-5.61-1.87A8.945,8.945,0,0,0,42.753,13a10.462,10.462,0,0,0-3.563,4.245V43.218H33.05V6.755Z" transform="translate(-17.762 9.29)" fill="#fff"/>
      <path id="Path_3" data-name="Path 3" d="M52.131,52.5V20.861H46.37V16.035h5.761v-3.74a12.483,12.483,0,0,1,3.133-9.072A11.826,11.826,0,0,1,64.134.014,16.6,16.6,0,0,1,68.43.6l-.354,5.054a17.688,17.688,0,0,0-3.361-.3A6.039,6.039,0,0,0,60.041,7.14a7.151,7.151,0,0,0-1.668,5.054v3.841h7.783v4.826H58.373V52.5Z" transform="translate(2.576 0.009)" fill="#fff"/>
      <path id="Path_4" data-name="Path 4" d="M55.6,24.381a21.707,21.707,0,0,1,2.1-9.628,15.945,15.945,0,0,1,5.862-6.621,16.147,16.147,0,0,1,8.591-2.325,15.364,15.364,0,0,1,12.053,5.054,19.963,19.963,0,0,1,4.6,13.721v.455A21.706,21.706,0,0,1,86.76,34.59a15.414,15.414,0,0,1-5.812,6.6,16.324,16.324,0,0,1-8.718,2.35A15.338,15.338,0,0,1,60.2,38.481a19.76,19.76,0,0,1-4.6-13.645Zm6.267.758a15.616,15.616,0,0,0,2.8,9.729,9.072,9.072,0,0,0,7.581,3.689,8.869,8.869,0,0,0,7.581-3.74,17.032,17.032,0,0,0,2.8-10.436,15.389,15.389,0,0,0-2.855-9.7,9.451,9.451,0,0,0-15.01,0A16.854,16.854,0,0,0,61.87,25.139Z" transform="translate(16.64 8.871)" fill="#fff"/>
      <path id="Path_5" data-name="Path 5" d="M89.6,20.166l11.5-18.4h7.581l-15.161,23.8,15.515,24.208h-7.581l-11.8-18.724L77.771,49.781H70.19L85.756,25.573,70.594,1.77h7.429Z" transform="translate(38.947 2.726)" fill="#fff"/>
      <path id="Path_6" data-name="Path 6" d="M88,49.784V1.773h13.8a22.54,22.54,0,0,1,11.3,2.78,18.7,18.7,0,0,1,7.581,7.884,25.269,25.269,0,0,1,2.7,11.725v3.083a25.269,25.269,0,0,1-2.679,11.9,18.421,18.421,0,0,1-7.581,7.833,23.425,23.425,0,0,1-11.523,2.8ZM95.581,6.826v37.9h6.848a15.161,15.161,0,0,0,11.7-4.473,18.623,18.623,0,0,0,4.195-13.165v-2.83a18.927,18.927,0,0,0-3.942-12.786,14.2,14.2,0,0,0-11.219-4.65Z" transform="translate(66.141 2.724)" fill="#fff"/>
    </g>
    <g id="Group_176" data-name="Group 176" transform="translate(0 2.407)">
      <rect id="Rectangle_2" data-name="Rectangle 2" width="30.323" height="30.323" fill="#fff"/>
      <rect id="Rectangle_3" data-name="Rectangle 3" width="17.688" height="17.688" transform="translate(35.377 12.635)" fill="#fff"/>
      <rect id="Rectangle_4" data-name="Rectangle 4" width="12.635" height="12.635" transform="translate(17.688 35.377)" fill="#fff"/>
    </g>
  </g>
</svg>
