<svg width="131" height="28" viewBox="0 0 131 28" fill="none" xmlns="http://www.w3.org/2000/svg">
<g clip-path="url(#clip0_549:964)">
<path d="M17.7266 0H0V17.7266H17.7266V0Z" fill="#00328B"/>
<path d="M30.9548 7.38574H20.6143V17.7263H30.9548V7.38574Z" fill="#00328B"/>
<path d="M17.7269 20.6143H10.3408V28.0003H17.7269V20.6143Z" fill="#00328B"/>
<path d="M50.0239 25.5831H47.6738V5.37207H50.0239V25.5831Z" fill="#00328B"/>
<path d="M67.0116 25.5827H64.7286V17.3237C64.7286 14.235 63.5871 12.7578 61.3713 12.7578C60.2298 12.7578 59.2898 13.1607 58.484 14.0336C57.7454 14.9065 57.3425 15.9808 57.3425 17.3237V25.5827H55.0596V11.1463H57.3425V13.5635H57.4097C58.484 11.7506 60.0955 10.8105 62.1771 10.8105C63.7886 10.8105 64.9301 11.3477 65.803 12.3549C66.6087 13.3621 67.0788 14.8393 67.0788 16.7866V25.5827H67.0116Z" fill="#00328B"/>
<path d="M78.4937 6.24465C78.0236 5.97606 77.5536 5.84177 76.9493 5.84177C75.3378 5.84177 74.532 6.84897 74.532 8.9305V11.1463H77.8893V13.0936H74.532V25.5828H72.2491V13.0936H69.7646V11.1463H72.2491V8.79621C72.2491 7.25184 72.7191 6.11036 73.592 5.23746C74.4649 4.36456 75.5392 3.89453 76.8822 3.89453C77.5536 3.89453 78.1579 3.96168 78.5608 4.16312V6.24465H78.4937Z" fill="#00328B"/>
<path d="M86.4168 25.9185C84.2681 25.9185 82.5895 25.247 81.3137 23.9041C80.0379 22.5611 79.4336 20.7482 79.4336 18.5324C79.4336 16.1151 80.1051 14.235 81.448 12.8249C82.7909 11.482 84.5367 10.8105 86.8197 10.8105C88.9684 10.8105 90.647 11.482 91.8557 12.8249C93.0643 14.1679 93.6686 15.9808 93.6686 18.3309C93.6686 20.6139 92.9972 22.494 91.7214 23.8369C90.3785 25.1798 88.6326 25.9185 86.4168 25.9185ZM86.6183 12.7578C85.141 12.7578 83.9324 13.295 83.1266 14.3022C82.2537 15.3093 81.8509 16.7194 81.8509 18.4652C81.8509 20.1439 82.3209 21.5539 83.1938 22.494C84.0667 23.5012 85.2082 23.9712 86.6854 23.9712C88.1626 23.9712 89.3041 23.5012 90.1099 22.494C90.9156 21.5539 91.3185 20.1439 91.3185 18.3309C91.3185 16.518 90.9156 15.1079 90.1099 14.1679C89.237 13.2278 88.0955 12.7578 86.6183 12.7578Z" fill="#00328B"/>
<path d="M111.597 25.5831H108.71L104.077 17.8613C103.942 17.6598 103.808 17.3241 103.607 16.8541H103.54C103.472 17.0555 103.271 17.3913 103.069 17.8613L98.3021 25.5831H95.3477L102.129 15.444L95.8848 5.37207H98.7721L102.935 12.4896C103.204 12.9596 103.472 13.4296 103.674 13.8996H103.741C104.01 13.2953 104.278 12.7582 104.547 12.4224L108.777 5.37207H111.53L105.151 15.3769L111.597 25.5831Z" fill="#00328B"/>
<path d="M114.619 25.5831V5.37207H120.192C127.31 5.37207 130.869 8.66224 130.869 15.2426C130.869 18.3313 129.861 20.8829 127.914 22.763C125.967 24.6431 123.281 25.5831 119.991 25.5831H114.619ZM117.036 7.52075V23.4344H120.058C122.677 23.4344 124.758 22.6958 126.235 21.2857C127.713 19.8757 128.451 17.8613 128.451 15.2426C128.451 10.0723 125.698 7.45361 120.192 7.45361H117.036V7.52075Z" fill="#00328B"/>
</g>
<defs>
<clipPath id="clip0_549:964">
<rect width="130.935" height="28" fill="white"/>
</clipPath>
</defs>
</svg>
