<svg xmlns="http://www.w3.org/2000/svg" xmlns:xlink="http://www.w3.org/1999/xlink" width="401.264" height="240.729" viewBox="0 0 401.264 240.729">
  <defs>
    <clipPath id="clip-path">
      <rect id="Rectangle_1816" data-name="Rectangle 1816" width="401.264" height="240.729" transform="translate(2 10)" fill="#fff"/>
    </clipPath>
  </defs>
  <g id="Primary_-_Logo-gold-icon" data-name="Primary - Logo-gold-icon" transform="translate(-2 -10)">
    <g id="Group_2681" data-name="Group 2681" clip-path="url(#clip-path)">
      <path id="Path_1894" data-name="Path 1894" d="M200.2,168.3l40.385-40.385,81.443,81.443-12.015,12.015a40.121,40.121,0,0,1-56.741,0Z" fill="#f47907"/>
      <path id="Path_1895" data-name="Path 1895" d="M82.126,50.438l11.65-11.65a40.122,40.122,0,0,1,56.741,0l54.767,54.768-40.02,40.019Z" fill="#f47907"/>
      <path id="Path_1896" data-name="Path 1896" d="M150.569,221.887a40.121,40.121,0,0,1-56.741,0l-11.65-11.649L185.62,106.8l40.02,40.02Z" fill="#dd6d06"/>
      <path id="Path_1897" data-name="Path 1897" d="M223.554,148.9l-40.02-40.02L253.91,38.509a40.122,40.122,0,0,1,56.741,0L322.3,50.159Z" fill="#dd6d06"/>
      <path id="Path_1898" data-name="Path 1898" d="M242.063,50.02l11.65-11.65a40.121,40.121,0,0,1,56.74,0l62.87,62.87a40.12,40.12,0,0,1,0,56.74l-11.649,11.65Z" fill="#f47907"/>
      <path id="Path_1899" data-name="Path 1899" d="M309.983,221.416a40.12,40.12,0,0,1-56.74,0l-11.65-11.649,120.06-120.06,11.649,11.65a40.12,40.12,0,0,1,0,56.74Z" fill="#ff8d24"/>
      <path id="Path_1900" data-name="Path 1900" d="M30.37,159.041a40.121,40.121,0,0,1,0-56.74l11.65-11.65L162.079,210.71,150.43,222.36a40.121,40.121,0,0,1-56.741,0Z" fill="#f47907"/>
      <path id="Path_1901" data-name="Path 1901" d="M42.02,170.551,30.37,158.9a40.122,40.122,0,0,1,0-56.741L93.689,38.842a40.122,40.122,0,0,1,56.741,0l11.649,11.65Z" fill="#ff8d24"/>
    </g>
  </g>
</svg>
