<svg width="514" height="150" viewBox="0 0 514 150" fill="none" xmlns="http://www.w3.org/2000/svg">
<g clip-path="url(#clip0_1439_75343)">
<path d="M49.4197 25.0981L56.4206 18.0534C66.1868 8.22602 82.021 8.22602 91.7872 18.0534L128.608 55.1047L103.924 79.9434L49.4197 25.0981Z" fill="white"/>
<path d="M120.213 96.2017L145.123 71.136L197.393 123.734L190.167 131.005C180.401 140.833 164.566 140.833 154.8 131.005L120.213 96.2017Z" fill="white"/>
<path d="M91.8217 131.323C82.0555 141.15 66.2213 141.15 56.4551 131.323L49.4542 124.278L111.969 61.3721L136.653 86.2109L91.8217 131.323Z" fill="white"/>
<path d="M136.656 86.2114L111.971 61.3726L155.194 17.8788C164.961 8.05144 180.795 8.05142 190.561 17.8788L197.562 24.9235L136.656 86.2114Z" fill="white"/>
<path d="M148.069 24.8386L155.07 17.7939C164.836 7.9665 180.67 7.9665 190.437 17.7939L228.846 56.4433C238.612 66.2707 238.612 82.2041 228.846 92.0315L221.845 99.0762L148.069 24.8386Z" fill="white"/>
<path d="M190.149 131.03C180.383 140.858 164.548 140.858 154.782 131.03L147.781 123.986L221.834 49.4693L228.835 56.514C238.601 66.3414 238.601 82.2748 228.835 92.1022L190.149 131.03Z" fill="white"/>
<path d="M17.6833 92.6891C7.91709 82.8617 7.91709 66.9284 17.6833 57.101L24.6842 50.0562L98.7368 124.573L91.736 131.617C81.9697 141.445 66.1355 141.445 56.3693 131.617L17.6833 92.6891Z" fill="white"/>
<path d="M24.6824 99.6467L17.6815 92.602C7.91525 82.7746 7.91525 66.8413 17.6815 57.0139L56.3675 18.0856C66.1337 8.25824 81.9679 8.25824 91.7341 18.0856L98.735 25.1304L24.6824 99.6467Z" fill="white"/>
</g>
<path d="M285.887 49.0945C285.745 47.6622 285.135 46.5495 284.058 45.7564C282.981 44.9633 281.519 44.5668 279.673 44.5668C278.418 44.5668 277.358 44.7443 276.494 45.0994C275.63 45.4427 274.967 45.9221 274.506 46.5376C274.056 47.1532 273.831 47.8516 273.831 48.6328C273.807 49.2839 273.943 49.852 274.239 50.3374C274.547 50.8227 274.967 51.2429 275.5 51.598C276.033 51.9413 276.648 52.2431 277.347 52.5036C278.045 52.7521 278.791 52.9652 279.584 53.1428L282.851 53.924C284.437 54.2791 285.893 54.7526 287.219 55.3445C288.545 55.9363 289.693 56.6643 290.663 57.5284C291.634 58.3925 292.386 59.4105 292.918 60.5824C293.463 61.7543 293.741 63.0978 293.753 64.6129C293.741 66.8383 293.173 68.7678 292.048 70.4013C290.936 72.023 289.326 73.2836 287.219 74.1832C285.124 75.071 282.596 75.5149 279.637 75.5149C276.701 75.5149 274.145 75.0651 271.967 74.1655C269.8 73.2659 268.108 71.9342 266.888 70.1705C265.681 68.3949 265.048 66.1991 264.989 63.5831H272.428C272.511 64.8023 272.86 65.8203 273.476 66.6371C274.103 67.442 274.938 68.0516 275.979 68.4659C277.033 68.8684 278.223 69.0696 279.548 69.0696C280.85 69.0696 281.981 68.8802 282.94 68.5014C283.91 68.1226 284.662 67.5959 285.195 66.9212C285.727 66.2464 285.994 65.4711 285.994 64.5952C285.994 63.7784 285.751 63.0919 285.266 62.5355C284.792 61.9792 284.094 61.5057 283.17 61.1151C282.259 60.7244 281.14 60.3693 279.815 60.0497L275.855 59.0554C272.789 58.3097 270.369 57.1437 268.593 55.5575C266.817 53.9714 265.936 51.8348 265.947 49.1477C265.936 46.946 266.522 45.0225 267.705 43.3771C268.901 41.7318 270.54 40.4474 272.624 39.5241C274.707 38.6009 277.074 38.1392 279.726 38.1392C282.425 38.1392 284.78 38.6009 286.793 39.5241C288.817 40.4474 290.391 41.7318 291.516 43.3771C292.64 45.0225 293.22 46.9283 293.256 49.0945H285.887ZM311.211 75.5327C308.406 75.5327 305.991 74.9645 303.967 73.8281C301.954 72.6799 300.404 71.0582 299.315 68.9631C298.226 66.8561 297.681 64.3643 297.681 61.4879C297.681 58.6825 298.226 56.2204 299.315 54.1016C300.404 51.9827 301.937 50.3314 303.914 49.1477C305.902 47.964 308.234 47.3722 310.909 47.3722C312.709 47.3722 314.383 47.6622 315.934 48.2422C317.497 48.8104 318.858 49.6686 320.018 50.8168C321.19 51.965 322.101 53.4091 322.752 55.1491C323.403 56.8774 323.729 58.9015 323.729 61.2216V63.299H300.7V58.6115H316.609C316.609 57.5225 316.372 56.5578 315.899 55.7173C315.425 54.8769 314.768 54.2199 313.928 53.7464C313.099 53.2611 312.134 53.0185 311.034 53.0185C309.885 53.0185 308.867 53.2848 307.98 53.8175C307.104 54.3383 306.417 55.0426 305.92 55.9304C305.423 56.8063 305.168 57.7829 305.156 58.8601V63.3168C305.156 64.6662 305.405 65.8321 305.902 66.8146C306.411 67.7971 307.127 68.5547 308.051 69.0874C308.974 69.62 310.069 69.8864 311.335 69.8864C312.176 69.8864 312.945 69.768 313.644 69.5312C314.342 69.2945 314.94 68.9394 315.437 68.4659C315.934 67.9924 316.313 67.4124 316.573 66.7259L323.569 67.1875C323.214 68.8684 322.486 70.3362 321.385 71.5909C320.296 72.8338 318.887 73.8045 317.159 74.5028C315.443 75.1894 313.46 75.5327 311.211 75.5327ZM336.229 59.233V75H328.665V47.7273H335.874V52.5391H336.193C336.797 50.9529 337.809 49.6982 339.23 48.7749C340.65 47.8397 342.372 47.3722 344.396 47.3722C346.29 47.3722 347.942 47.7865 349.35 48.6151C350.759 49.4437 351.854 50.6274 352.635 52.1662C353.416 53.6932 353.807 55.5161 353.807 57.6349V75H346.243V58.9844C346.255 57.3153 345.829 56.0133 344.965 55.0781C344.101 54.1312 342.911 53.6577 341.396 53.6577C340.378 53.6577 339.478 53.8767 338.697 54.3146C337.927 54.7526 337.324 55.3918 336.886 56.2322C336.46 57.0608 336.241 58.0611 336.229 59.233ZM382.46 55.5043L375.536 55.9304C375.417 55.3385 375.163 54.8059 374.772 54.3324C374.381 53.8471 373.866 53.4624 373.227 53.1783C372.6 52.8823 371.848 52.7344 370.972 52.7344C369.8 52.7344 368.812 52.983 368.007 53.4801C367.202 53.9654 366.8 54.6165 366.8 55.4332C366.8 56.0843 367.06 56.6347 367.581 57.0845C368.102 57.5343 368.996 57.8954 370.262 58.1676L375.198 59.1619C377.85 59.7064 379.826 60.5824 381.129 61.7898C382.431 62.9972 383.082 64.5833 383.082 66.5483C383.082 68.3357 382.555 69.9041 381.501 71.2536C380.46 72.603 379.027 73.6565 377.205 74.4141C375.393 75.1598 373.304 75.5327 370.937 75.5327C367.326 75.5327 364.45 74.781 362.308 73.2777C360.177 71.7625 358.928 69.7029 358.561 67.0987L366.001 66.7081C366.226 67.8089 366.77 68.6494 367.634 69.2294C368.498 69.7976 369.605 70.0817 370.955 70.0817C372.28 70.0817 373.346 69.8272 374.151 69.3182C374.967 68.7973 375.382 68.1286 375.393 67.3118C375.382 66.6252 375.092 66.063 374.523 65.625C373.955 65.1752 373.079 64.8319 371.896 64.5952L367.173 63.6541C364.509 63.1214 362.527 62.1982 361.224 60.8842C359.934 59.5703 359.289 57.8954 359.289 55.8594C359.289 54.1075 359.763 52.5982 360.71 51.3317C361.668 50.0651 363.012 49.0885 364.74 48.402C366.48 47.7154 368.516 47.3722 370.848 47.3722C374.293 47.3722 377.003 48.1001 378.98 49.5561C380.969 51.0121 382.129 52.9948 382.46 55.5043ZM400.274 75.5327C397.468 75.5327 395.053 74.9645 393.029 73.8281C391.017 72.6799 389.466 71.0582 388.377 68.9631C387.288 66.8561 386.744 64.3643 386.744 61.4879C386.744 58.6825 387.288 56.2204 388.377 54.1016C389.466 51.9827 390.999 50.3314 392.976 49.1477C394.965 47.964 397.297 47.3722 399.972 47.3722C401.771 47.3722 403.446 47.6622 404.997 48.2422C406.559 48.8104 407.92 49.6686 409.08 50.8168C410.252 51.965 411.164 53.4091 411.815 55.1491C412.466 56.8774 412.791 58.9015 412.791 61.2216V63.299H389.762V58.6115H405.671C405.671 57.5225 405.435 56.5578 404.961 55.7173C404.488 54.8769 403.831 54.2199 402.99 53.7464C402.162 53.2611 401.197 53.0185 400.096 53.0185C398.948 53.0185 397.93 53.2848 397.042 53.8175C396.166 54.3383 395.48 55.0426 394.982 55.9304C394.485 56.8063 394.231 57.7829 394.219 58.8601V63.3168C394.219 64.6662 394.468 65.8321 394.965 66.8146C395.474 67.7971 396.19 68.5547 397.113 69.0874C398.036 69.62 399.131 69.8864 400.398 69.8864C401.238 69.8864 402.008 69.768 402.706 69.5312C403.405 69.2945 404.002 68.9394 404.499 68.4659C404.997 67.9924 405.375 67.4124 405.636 66.7259L412.632 67.1875C412.276 68.8684 411.548 70.3362 410.448 71.5909C409.359 72.8338 407.95 73.8045 406.222 74.5028C404.505 75.1894 402.523 75.5327 400.274 75.5327ZM451.286 56.8182C451.286 60.7836 450.534 64.1572 449.031 66.9389C447.539 69.7206 445.503 71.8454 442.923 73.3132C440.354 74.7692 437.466 75.4972 434.258 75.4972C431.026 75.4972 428.126 74.7633 425.558 73.2955C422.989 71.8277 420.959 69.7029 419.468 66.9212C417.976 64.1394 417.23 60.7718 417.23 56.8182C417.23 52.8527 417.976 49.4792 419.468 46.6974C420.959 43.9157 422.989 41.7969 425.558 40.3409C428.126 38.8731 431.026 38.1392 434.258 38.1392C437.466 38.1392 440.354 38.8731 442.923 40.3409C445.503 41.7969 447.539 43.9157 449.031 46.6974C450.534 49.4792 451.286 52.8527 451.286 56.8182ZM443.491 56.8182C443.491 54.2495 443.106 52.0833 442.337 50.3196C441.579 48.5559 440.508 47.2183 439.123 46.3068C437.738 45.3954 436.116 44.9396 434.258 44.9396C432.4 44.9396 430.778 45.3954 429.393 46.3068C428.008 47.2183 426.931 48.5559 426.161 50.3196C425.404 52.0833 425.025 54.2495 425.025 56.8182C425.025 59.3868 425.404 61.553 426.161 63.3168C426.931 65.0805 428.008 66.4181 429.393 67.3295C430.778 68.241 432.4 68.6967 434.258 68.6967C436.116 68.6967 437.738 68.241 439.123 67.3295C440.508 66.4181 441.579 65.0805 442.337 63.3168C443.106 61.553 443.491 59.3868 443.491 56.8182ZM456.839 85.2273V47.7273H464.296V52.3082H464.634C464.965 51.5743 465.444 50.8286 466.072 50.071C466.711 49.3016 467.54 48.6624 468.558 48.1534C469.587 47.6326 470.866 47.3722 472.393 47.3722C474.381 47.3722 476.216 47.893 477.897 48.9347C479.578 49.9645 480.921 51.5211 481.928 53.6044C482.934 55.6759 483.437 58.2741 483.437 61.3991C483.437 64.4413 482.946 67.0099 481.963 69.1051C480.992 71.1884 479.667 72.7687 477.986 73.8459C476.317 74.9112 474.446 75.4439 472.375 75.4439C470.907 75.4439 469.658 75.2012 468.629 74.7159C467.611 74.2306 466.776 73.621 466.125 72.8871C465.474 72.1413 464.977 71.3897 464.634 70.6321H464.403V85.2273H456.839ZM464.243 61.3636C464.243 62.9853 464.468 64.3999 464.918 65.6072C465.367 66.8146 466.018 67.7557 466.871 68.4304C467.723 69.0933 468.759 69.4247 469.978 69.4247C471.209 69.4247 472.251 69.0874 473.103 68.4126C473.955 67.7261 474.6 66.7791 475.038 65.5717C475.488 64.3525 475.713 62.9498 475.713 61.3636C475.713 59.7893 475.494 58.4044 475.056 57.2088C474.618 56.0133 473.973 55.0781 473.121 54.4034C472.268 53.7287 471.221 53.3913 469.978 53.3913C468.747 53.3913 467.705 53.7169 466.853 54.3679C466.013 55.0189 465.367 55.9422 464.918 57.1378C464.468 58.3333 464.243 59.742 464.243 61.3636ZM511.171 55.5043L504.246 55.9304C504.128 55.3385 503.874 54.8059 503.483 54.3324C503.092 53.8471 502.577 53.4624 501.938 53.1783C501.311 52.8823 500.559 52.7344 499.683 52.7344C498.511 52.7344 497.523 52.983 496.718 53.4801C495.913 53.9654 495.511 54.6165 495.511 55.4332C495.511 56.0843 495.771 56.6347 496.292 57.0845C496.813 57.5343 497.706 57.8954 498.973 58.1676L503.909 59.1619C506.561 59.7064 508.537 60.5824 509.839 61.7898C511.142 62.9972 511.793 64.5833 511.793 66.5483C511.793 68.3357 511.266 69.9041 510.212 71.2536C509.171 72.603 507.738 73.6565 505.915 74.4141C504.104 75.1598 502.015 75.5327 499.648 75.5327C496.037 75.5327 493.161 74.781 491.018 73.2777C488.888 71.7625 487.639 69.7029 487.272 67.0987L494.712 66.7081C494.937 67.8089 495.481 68.6494 496.345 69.2294C497.209 69.7976 498.316 70.0817 499.665 70.0817C500.991 70.0817 502.057 69.8272 502.862 69.3182C503.678 68.7973 504.093 68.1286 504.104 67.3118C504.093 66.6252 503.803 66.063 503.234 65.625C502.666 65.1752 501.79 64.8319 500.607 64.5952L495.884 63.6541C493.22 63.1214 491.237 62.1982 489.935 60.8842C488.645 59.5703 488 57.8954 488 55.8594C488 54.1075 488.473 52.5982 489.42 51.3317C490.379 50.0651 491.723 49.0885 493.451 48.402C495.191 47.7154 497.227 47.3722 499.559 47.3722C503.004 47.3722 505.714 48.1001 507.691 49.5561C509.68 51.0121 510.84 52.9948 511.171 55.5043Z" fill="white"/>
<path d="M273.828 117.13C272.355 117.13 271.115 116.879 270.11 116.376C269.105 115.856 268.299 115.163 267.692 114.296C267.085 113.412 266.643 112.415 266.366 111.306C266.089 110.197 265.95 109.053 265.95 107.874V98.54H268.29V107.874C268.29 108.775 268.377 109.659 268.55 110.526C268.741 111.375 269.044 112.138 269.46 112.814C269.876 113.49 270.439 114.027 271.15 114.426C271.861 114.825 272.745 115.024 273.802 115.024C274.877 115.024 275.769 114.825 276.48 114.426C277.191 114.01 277.754 113.464 278.17 112.788C278.586 112.095 278.881 111.323 279.054 110.474C279.245 109.625 279.34 108.758 279.34 107.874V98.54H281.68V107.874C281.68 109.122 281.533 110.309 281.238 111.436C280.961 112.545 280.51 113.525 279.886 114.374C279.262 115.223 278.447 115.899 277.442 116.402C276.454 116.887 275.249 117.13 273.828 117.13ZM286.877 117V98.54H289.217V117H286.877ZM316.457 112.242C316.457 113.195 316.214 114.027 315.729 114.738C315.244 115.449 314.585 116.003 313.753 116.402C312.938 116.801 312.037 117 311.049 117H302.287V98.54H311.465C312.332 98.54 313.077 98.774 313.701 99.242C314.342 99.6927 314.828 100.282 315.157 101.01C315.504 101.721 315.677 102.466 315.677 103.246C315.677 104.147 315.443 104.997 314.975 105.794C314.524 106.574 313.874 107.155 313.025 107.536C314.082 107.848 314.914 108.429 315.521 109.278C316.145 110.11 316.457 111.098 316.457 112.242ZM314.091 111.826C314.091 111.254 313.961 110.725 313.701 110.24C313.458 109.755 313.12 109.365 312.687 109.07C312.271 108.775 311.786 108.628 311.231 108.628H304.627V114.972H311.049C311.621 114.972 312.132 114.825 312.583 114.53C313.051 114.235 313.415 113.854 313.675 113.386C313.952 112.901 314.091 112.381 314.091 111.826ZM304.627 100.568V106.73H310.503C311.058 106.73 311.543 106.591 311.959 106.314C312.392 106.037 312.73 105.664 312.973 105.196C313.233 104.728 313.363 104.217 313.363 103.662C313.363 103.073 313.242 102.553 312.999 102.102C312.774 101.634 312.453 101.261 312.037 100.984C311.638 100.707 311.179 100.568 310.659 100.568H304.627ZM320.276 111.566V103.428H322.564V111.124C322.564 112.511 322.807 113.551 323.292 114.244C323.778 114.937 324.497 115.284 325.45 115.284C326.074 115.284 326.672 115.154 327.244 114.894C327.834 114.617 328.362 114.227 328.83 113.724C329.298 113.221 329.662 112.623 329.922 111.93V103.428H332.21V114.4C332.21 114.677 332.262 114.885 332.366 115.024C332.488 115.145 332.678 115.215 332.938 115.232V117C332.678 117.035 332.47 117.052 332.314 117.052C332.176 117.069 332.037 117.078 331.898 117.078C331.465 117.078 331.092 116.948 330.78 116.688C330.468 116.411 330.304 116.073 330.286 115.674L330.234 114.088C329.645 115.093 328.848 115.873 327.842 116.428C326.854 116.983 325.771 117.26 324.592 117.26C323.171 117.26 322.096 116.783 321.368 115.83C320.64 114.859 320.276 113.438 320.276 111.566ZM337.062 117V103.428H339.35V117H337.062ZM337.062 100.88V98.02H339.35V100.88H337.062ZM344.146 98.02H346.434V113.49C346.434 114.235 346.538 114.695 346.746 114.868C346.954 115.041 347.205 115.128 347.5 115.128C347.864 115.128 348.21 115.093 348.54 115.024C348.869 114.937 349.146 114.851 349.372 114.764L349.736 116.636C349.354 116.792 348.904 116.922 348.384 117.026C347.864 117.13 347.404 117.182 347.006 117.182C346.122 117.182 345.42 116.931 344.9 116.428C344.397 115.925 344.146 115.223 344.146 114.322V98.02ZM351.689 110.24C351.689 108.957 351.949 107.787 352.469 106.73C353.007 105.655 353.735 104.797 354.653 104.156C355.589 103.515 356.655 103.194 357.851 103.194C358.943 103.194 359.923 103.48 360.789 104.052C361.656 104.624 362.332 105.317 362.817 106.132V98.02H365.105V114.4C365.105 114.677 365.157 114.885 365.261 115.024C365.383 115.145 365.573 115.215 365.833 115.232V117C365.4 117.069 365.062 117.104 364.819 117.104C364.369 117.104 363.97 116.948 363.623 116.636C363.294 116.324 363.129 115.977 363.129 115.596V114.452C362.592 115.319 361.873 116.003 360.971 116.506C360.07 117.009 359.134 117.26 358.163 117.26C357.227 117.26 356.361 117.078 355.563 116.714C354.783 116.333 354.099 115.813 353.509 115.154C352.937 114.495 352.487 113.75 352.157 112.918C351.845 112.069 351.689 111.176 351.689 110.24ZM362.817 112.242V108.342C362.609 107.753 362.271 107.224 361.803 106.756C361.335 106.271 360.807 105.889 360.217 105.612C359.645 105.317 359.073 105.17 358.501 105.17C357.825 105.17 357.21 105.317 356.655 105.612C356.118 105.889 355.65 106.271 355.251 106.756C354.87 107.224 354.575 107.761 354.367 108.368C354.159 108.975 354.055 109.607 354.055 110.266C354.055 110.942 354.168 111.583 354.393 112.19C354.636 112.797 354.965 113.334 355.381 113.802C355.815 114.27 356.309 114.634 356.863 114.894C357.435 115.154 358.051 115.284 358.709 115.284C359.125 115.284 359.55 115.206 359.983 115.05C360.434 114.894 360.859 114.677 361.257 114.4C361.656 114.123 361.994 113.802 362.271 113.438C362.549 113.057 362.731 112.658 362.817 112.242ZM375.971 117.26C374.948 117.26 374.012 117.078 373.163 116.714C372.331 116.333 371.603 115.821 370.979 115.18C370.372 114.521 369.895 113.767 369.549 112.918C369.219 112.069 369.055 111.167 369.055 110.214C369.055 108.931 369.349 107.761 369.939 106.704C370.528 105.647 371.343 104.797 372.383 104.156C373.44 103.515 374.645 103.194 375.997 103.194C377.366 103.194 378.553 103.523 379.559 104.182C380.581 104.823 381.37 105.673 381.925 106.73C382.497 107.77 382.783 108.897 382.783 110.11C382.783 110.283 382.774 110.457 382.757 110.63C382.757 110.786 382.748 110.907 382.731 110.994H371.473C371.542 111.878 371.785 112.667 372.201 113.36C372.634 114.036 373.189 114.573 373.865 114.972C374.541 115.353 375.269 115.544 376.049 115.544C376.881 115.544 377.661 115.336 378.389 114.92C379.134 114.504 379.645 113.958 379.923 113.282L381.899 113.828C381.604 114.487 381.162 115.076 380.573 115.596C380.001 116.116 379.316 116.523 378.519 116.818C377.739 117.113 376.889 117.26 375.971 117.26ZM371.395 109.408H380.651C380.581 108.524 380.33 107.744 379.897 107.068C379.463 106.392 378.909 105.863 378.233 105.482C377.557 105.101 376.811 104.91 375.997 104.91C375.199 104.91 374.463 105.101 373.787 105.482C373.111 105.863 372.556 106.392 372.123 107.068C371.707 107.744 371.464 108.524 371.395 109.408ZM393.542 105.43C392.398 105.447 391.384 105.742 390.5 106.314C389.633 106.869 389.018 107.64 388.654 108.628V117H386.366V103.428H388.498V106.574C388.966 105.638 389.581 104.884 390.344 104.312C391.124 103.723 391.939 103.393 392.788 103.324C392.961 103.324 393.109 103.324 393.23 103.324C393.351 103.324 393.455 103.333 393.542 103.35V105.43Z" fill="#F4F4F4"/>
<defs>
<clipPath id="clip0_1439_75343">
<rect width="254" height="149.412" fill="white"/>
</clipPath>
</defs>
</svg>
