<svg xmlns="http://www.w3.org/2000/svg" width="20" height="20" viewBox="0 0 20 20">
  <g id="Addboard_card_button" transform="translate(-50 -423)">
    <g id="Path_2432" data-name="Path 2432" transform="translate(50 423)" fill="none">
      <path d="M10,0A10,10,0,1,1,0,10,10,10,0,0,1,10,0Z" stroke="none"/>
      <path d="M 10 1 C 5.037380218505859 1 1 5.037380218505859 1 10 C 1 14.96261978149414 5.037380218505859 19 10 19 C 14.96261978149414 19 19 14.96261978149414 19 10 C 19 5.037380218505859 14.96261978149414 1 10 1 M 10 0 C 15.52285003662109 0 20 4.477149963378906 20 10 C 20 15.52285003662109 15.52285003662109 20 10 20 C 4.477149963378906 20 0 15.52285003662109 0 10 C 0 4.477149963378906 4.477149963378906 0 10 0 Z" stroke="none" fill="#1346A0"/>
    </g>
    <g id="Group_479" data-name="Group 479" transform="translate(57 430)">
      <line id="Line_110" data-name="Line 110" y2="6" transform="translate(3)" fill="none" stroke="#1346A0" stroke-linecap="round" stroke-width="1"/>
      <line id="Line_111" data-name="Line 111" y2="6" transform="translate(6 3) rotate(90)" fill="none" stroke="#1346A0" stroke-linecap="round" stroke-width="1"/>
    </g>
  </g>
</svg>
