<?xml version="1.0" encoding="utf-8"?>
<!-- Generator: Adobe Illustrator 22.0.1, SVG Export Plug-In . SVG Version: 6.00 Build 0)  -->
<svg version="1.1" id="Layer_1" xmlns="http://www.w3.org/2000/svg" xmlns:xlink="http://www.w3.org/1999/xlink" x="0px" y="0px"
	 viewBox="0 0 20 20" style="enable-background:new 0 0 20 20;" xml:space="preserve">
<style type="text/css">
	.st0{fill:none;}
	.st1{fill:#FFFFFF;}
	.st2{fill:none;stroke:#FFFFFF;stroke-linecap:round;}
</style>
<g id="Addboard_card_button" transform="translate(-50 -423)">
	<g id="Path_2432" transform="translate(50 423)">
		<path class="st0" d="M10,0c5.5,0,10,4.5,10,10s-4.5,10-10,10S0,15.5,0,10S4.5,0,10,0z"/>
		<path class="st1" d="M10,1c-5,0-9,4-9,9s4,9,9,9s9-4,9-9S15,1,10,1 M10,0c5.5,0,10,4.5,10,10s-4.5,10-10,10S0,15.5,0,10
			S4.5,0,10,0z"/>
	</g>
	<g id="Group_479" transform="translate(57 430)">
		<line id="Line_110" class="st2" x1="3" y1="0" x2="3" y2="6"/>
		<line id="Line_111" class="st2" x1="6" y1="3" x2="0" y2="3"/>
	</g>
</g>
</svg>
