<svg id="edit-document-active" xmlns="http://www.w3.org/2000/svg" width="16" height="16.933" viewBox="0 0 16 16.933">
  <g id="Group_82" data-name="Group 82" transform="translate(0 0)">
    <path id="Path_151" data-name="Path 151" d="M146.893.184l-6.409,6.409a.687.687,0,0,0-.192.448l-.043,3.274a.644.644,0,0,0,.192.469.683.683,0,0,0,.448.213h.011l3.167-.064a.661.661,0,0,0,.448-.213l6.462-6.462a.65.65,0,0,0,0-.906L147.81.184A.663.663,0,0,0,146.893.184ZM143.78,9.632l-2.239.032.032-2.346,3.263-3.263,2.25,2.282Zm4.212-4.212-2.25-2.282,1.6-1.6L149.6,3.8Z" transform="translate(-135.161 0)" fill="#fff"/>
    <path id="Path_152" data-name="Path 152" d="M19.221,21.491a.651.651,0,0,0,0-1.3h-6.4a.648.648,0,0,0-.64.651V35.71a.648.648,0,0,0,.64.651H24.766a.648.648,0,0,0,.64-.651V29.631a.64.64,0,1,0-1.28,0v5.427H13.463V21.491Z" transform="translate(-12.183 -19.428)" fill="#fff"/>
  </g>
</svg>
