<svg xmlns="http://www.w3.org/2000/svg" width="28.634" height="28.576" viewBox="0 0 28.634 28.576">
  <g id="app_integration" transform="translate(0.001 0)">
    <path id="Path_2776" dataName="Path 2776" d="M604,723.9" transform="translate(-586.645 -703.07)" fill="#1346A0"/>
    <path id="Path_2777" dataName="Path 2777" d="M19.1,108.746V115.9H11.946v-7.156H19.1m.091-1.946H11.826A1.806,1.806,0,0,0,10,108.626v7.366a1.815,1.815,0,0,0,.529,1.312,1.746,1.746,0,0,0,1.3.546h7.366a1.861,1.861,0,0,0,1.855-1.858v-7.366a1.743,1.743,0,0,0-.543-1.3,1.82,1.82,0,0,0-1.312-.529Z" transform="translate(-10.001 -104.001)" fill="#1346A0"/>
    <path id="Path_2778" dataName="Path 2778" d="M19.1,612.846V620H11.946v-7.156H19.1m.091-1.946H11.826A1.806,1.806,0,0,0,10,612.726v7.4a1.806,1.806,0,0,0,1.826,1.826h7.366a1.827,1.827,0,0,0,1.312-.529,1.743,1.743,0,0,0,.543-1.3v-7.4a1.743,1.743,0,0,0-.543-1.3,1.832,1.832,0,0,0-1.312-.529Z" transform="translate(-10.001 -593.372)" fill="#1346A0"/>
    <path id="Path_2779" dataName="Path 2779" d="M523.1,612.846V620h-7.156v-7.156H523.1m.12-1.946h-7.366a1.815,1.815,0,0,0-1.312.529,1.746,1.746,0,0,0-.546,1.3v7.4a1.735,1.735,0,0,0,.546,1.3,1.81,1.81,0,0,0,1.312.529h7.366a1.806,1.806,0,0,0,1.826-1.826v-7.4a1.806,1.806,0,0,0-1.826-1.826Z" transform="translate(-499.274 -593.372)" fill="#1346A0"/>
    <path id="Path_2780" dataName="Path 2780" d="M489.21,12.946h0a.079.079,0,0,1,.018.015l5.449,5.449-5.467,5.467-5.464-5.464v-.006a.113.113,0,0,0,.015-.018l5.432-5.429a.078.078,0,0,1,.018-.015h0m0-1.946a1.93,1.93,0,0,0-1.37.561l-5.479,5.479a1.939,1.939,0,0,0-.561,1.385,1.849,1.849,0,0,0,.561,1.356l5.479,5.479a1.886,1.886,0,0,0,2.741,0l5.479-5.479a1.806,1.806,0,0,0,.59-1.356,1.9,1.9,0,0,0-.59-1.385l-5.479-5.479A1.925,1.925,0,0,0,489.21,11Z" transform="translate(-468.015 -11)" fill="#1346A0"/>
    <path id="Path_2781" dataName="Path 2781" d="M960.8,208.6" transform="translate(-933.019 -202.827)" fill="#1346A0"/>
  </g>
</svg>
