<svg xmlns="http://www.w3.org/2000/svg" width="16.826" height="9.5" viewBox="0 0 16.826 9.5">
  <g id="attachement_icon" transform="translate(-503.136 -360.357)">
    <path id="Path_2645" data-name="Path 2645" d="M516.546,369.857h-8.66a4.75,4.75,0,0,1,0-9.5h8.66a3.417,3.417,0,0,1,0,6.834l-8.665-.005a2.083,2.083,0,0,1,0-4.166l8,0a.75.75,0,0,1,0,1.5h0l-8,0a.583.583,0,0,0,0,1.166l8.665.005a1.917,1.917,0,0,0,0-3.834h-8.66a3.25,3.25,0,0,0,0,6.5h8.66a.75.75,0,0,1,0,1.5Z" fill="#4b4b4b"/>
  </g>
</svg>
