<svg xmlns="http://www.w3.org/2000/svg" width="10.428" height="16" viewBox="0 0 10.428 16">
  <g id="library-bookmark-normal" transform="translate(0)">
    <path id="Path_146" data-name="Path 146" d="M91.605,0H82.336a.581.581,0,0,0-.579.579V15.42a.577.577,0,0,0,.367.541.57.57,0,0,0,.637-.154l4.326-4.741L91.171,15.8a.6.6,0,0,0,.434.2.5.5,0,0,0,.2-.039.586.586,0,0,0,.377-.541V.579A.581.581,0,0,0,91.605,0Zm-.579,13.865L87.541,9.82a.565.565,0,0,0-.434-.2.571.571,0,0,0-.435.193l-3.756,4.123V1.159h8.111Z" transform="translate(-81.757)" fill="#7f95af"/>
  </g>
</svg>
