<?xml version="1.0" encoding="utf-8"?>
<!-- Generator: Adobe Illustrator 22.0.1, SVG Export Plug-In . SVG Version: 6.00 Build 0)  -->
<svg version="1.1" id="Layer_1" xmlns="http://www.w3.org/2000/svg" xmlns:xlink="http://www.w3.org/1999/xlink" x="0px" y="0px"
	 viewBox="0 0 19.9 19.9" style="enable-background:new 0 0 19.9 19.9;" xml:space="preserve">
<style type="text/css">
	.st0{fill:none;stroke:#4B4B4B;stroke-linecap:round;stroke-miterlimit:10;}
	.st1{fill:#4B4B4B;}
	.st2{fill:#BFCEDF;}
</style>
<g id="chart_icon_5" transform="translate(0.5 0.5)">
	<g id="Group_562" transform="translate(5.143 6)">
		<line id="Line_139" class="st0" x1="4.3" y1="-6" x2="4.3" y2="12.9"/>
		<line id="Line_140" class="st0" x1="13.7" y1="3.4" x2="-5.1" y2="3.4"/>
		<circle id="Ellipse_148" class="st1" cx="-4.2" cy="-3.1" r="0.6"/>
		<circle id="Ellipse_149" class="st2" cx="-1.2" cy="-3.1" r="0.6"/>
		<circle id="Ellipse_150" class="st1" cx="-1.2" cy="-0.5" r="0.6"/>
		<circle id="Ellipse_151" class="st2" cx="2.7" cy="-0.5" r="0.6"/>
		<circle id="Ellipse_152" class="st1" cx="-0.6" cy="1.8" r="0.6"/>
		<circle id="Ellipse_153" class="st1" cx="-4.2" cy="5.7" r="0.6"/>
		<circle id="Ellipse_154" class="st2" cx="-1.2" cy="5.1" r="0.6"/>
		<circle id="Ellipse_155" class="st2" cx="-1.6" cy="7.7" r="0.6"/>
		<circle id="Ellipse_156" class="st2" cx="1.9" cy="6.1" r="0.6"/>
		<circle id="Ellipse_157" class="st1" cx="-3.5" cy="9.9" r="0.6"/>
		<circle id="Ellipse_158" class="st1" cx="8.5" cy="-2.1" r="0.6"/>
		<circle id="Ellipse_159" class="st2" cx="11.8" cy="-3.1" r="0.6"/>
		<circle id="Ellipse_160" class="st2" cx="6.2" cy="-1" r="0.6"/>
		<circle id="Ellipse_161" class="st1" cx="11.1" cy="-0.5" r="0.6"/>
		<circle id="Ellipse_162" class="st1" cx="6.9" cy="1.8" r="0.6"/>
		<circle id="Ellipse_163" class="st1" cx="8.5" cy="8.6" r="0.6"/>
		<circle id="Ellipse_164" class="st1" cx="5.9" cy="5.7" r="0.6"/>
	</g>
</g>
</svg>
