<svg xmlns="http://www.w3.org/2000/svg" width="31" height="31.001" viewBox="0 0 31 31.001">
  <g id="chart_icon_5" transform="translate(0.5 0.5)">
    <g id="Group_562" data-name="Group 562" transform="translate(5.143 6)">
      <line id="Line_139" data-name="Line 139" y2="18.858" transform="translate(9.429)" fill="none" stroke="#4b4b4b" stroke-linecap="round" stroke-miterlimit="10" stroke-width="1"/>
      <line id="Line_140" data-name="Line 140" x1="18.858" transform="translate(0 9.429)" fill="none" stroke="#4b4b4b" stroke-linecap="round" stroke-miterlimit="10" stroke-width="1"/>
      <circle id="Ellipse_148" data-name="Ellipse 148" cx="0.65" cy="0.65" r="0.65" transform="translate(0.325 2.276)" fill="#4b4b4b"/>
      <circle id="Ellipse_149" data-name="Ellipse 149" cx="0.65" cy="0.65" r="0.65" transform="translate(3.251 2.276)" fill="#bfcedf"/>
      <circle id="Ellipse_150" data-name="Ellipse 150" cx="0.65" cy="0.65" r="0.65" transform="translate(3.251 4.877)" fill="#4b4b4b"/>
      <circle id="Ellipse_151" data-name="Ellipse 151" cx="0.65" cy="0.65" r="0.65" transform="translate(7.153 4.877)" fill="#bfcedf"/>
      <circle id="Ellipse_152" data-name="Ellipse 152" cx="0.65" cy="0.65" r="0.65" transform="translate(3.902 7.153)" fill="#4b4b4b"/>
      <circle id="Ellipse_153" data-name="Ellipse 153" cx="0.65" cy="0.65" r="0.65" transform="translate(0.325 11.054)" fill="#4b4b4b"/>
      <circle id="Ellipse_154" data-name="Ellipse 154" cx="0.65" cy="0.65" r="0.65" transform="translate(3.251 10.404)" fill="#bfcedf"/>
      <circle id="Ellipse_155" data-name="Ellipse 155" cx="0.65" cy="0.65" r="0.65" transform="translate(2.926 13.005)" fill="#bfcedf"/>
      <circle id="Ellipse_156" data-name="Ellipse 156" cx="0.65" cy="0.65" r="0.65" transform="translate(6.384 11.498)" fill="#bfcedf"/>
      <circle id="Ellipse_157" data-name="Ellipse 157" cx="0.65" cy="0.65" r="0.65" transform="translate(0.975 15.281)" fill="#4b4b4b"/>
      <circle id="Ellipse_158" data-name="Ellipse 158" cx="0.65" cy="0.65" r="0.65" transform="translate(13.005 3.251)" fill="#4b4b4b"/>
      <circle id="Ellipse_159" data-name="Ellipse 159" cx="0.65" cy="0.65" r="0.65" transform="translate(16.256 2.276)" fill="#bfcedf"/>
      <circle id="Ellipse_160" data-name="Ellipse 160" cx="0.65" cy="0.65" r="0.65" transform="translate(10.729 4.345)" fill="#bfcedf"/>
      <circle id="Ellipse_161" data-name="Ellipse 161" cx="0.65" cy="0.65" r="0.65" transform="translate(15.606 4.877)" fill="#4b4b4b"/>
      <circle id="Ellipse_162" data-name="Ellipse 162" cx="0.65" cy="0.65" r="0.65" transform="translate(11.38 7.153)" fill="#4b4b4b"/>
      <circle id="Ellipse_163" data-name="Ellipse 163" cx="0.65" cy="0.65" r="0.65" transform="translate(13.005 13.981)" fill="#4b4b4b"/>
      <circle id="Ellipse_164" data-name="Ellipse 164" cx="0.65" cy="0.65" r="0.65" transform="translate(10.404 11.054)" fill="#4b4b4b"/>
    </g>
    <rect id="Rectangle_294" data-name="Rectangle 294" width="30.001" height="30.001" rx="4" fill="none" stroke="#dbdddf" stroke-width="1"/>
  </g>
</svg>
