<?xml version="1.0" encoding="utf-8"?>
<!-- Generator: Adobe Illustrator 22.0.1, SVG Export Plug-In . SVG Version: 6.00 Build 0)  -->
<svg version="1.1" id="Layer_1" xmlns="http://www.w3.org/2000/svg" xmlns:xlink="http://www.w3.org/1999/xlink" x="0px" y="0px"
	 viewBox="0 0 18.1 18.1" style="enable-background:new 0 0 18.1 18.1;" xml:space="preserve">
<style type="text/css">
	.st0{fill:#FFFFFF;}
	.st1{fill:none;stroke:#FFFFFF;stroke-linecap:round;stroke-miterlimit:10;}
</style>
<g id="chart_icon_7" transform="translate(0.5 0.5)">
	<g id="Group_568" transform="translate(6.857 6)">
		<rect id="Rectangle_301" x="3.1" y="-2.4" class="st0" width="3.4" height="3.4"/>
		<rect id="Rectangle_302" x="-0.3" y="-2.4" class="st0" width="3.4" height="3.4"/>
		<rect id="Rectangle_304" x="6.6" y="-2.4" class="st0" width="3.4" height="3.4"/>
		<rect id="Rectangle_306" x="3.1" y="1" class="st0" width="3.4" height="3.4"/>
		<rect id="Rectangle_308" x="-3.7" y="1" class="st0" width="3.4" height="3.4"/>
		<rect id="Rectangle_309" x="6.6" y="1" class="st0" width="3.4" height="3.4"/>
		<rect id="Rectangle_312" x="-0.3" y="4.4" class="st0" width="3.4" height="3.4"/>
		<rect id="Rectangle_313" x="-3.7" y="4.4" class="st0" width="3.4" height="3.4"/>
		<rect id="Rectangle_314" x="6.6" y="4.4" class="st0" width="3.4" height="3.4"/>
		<rect id="Rectangle_315" x="-7.2" y="-5.8" class="st0" width="3.4" height="3.4"/>
		<rect id="Rectangle_321" x="3.1" y="7.9" class="st0" width="3.4" height="3.4"/>
		<rect id="Rectangle_322" x="-0.3" y="7.9" class="st0" width="3.4" height="3.4"/>
		<rect id="Rectangle_323" x="-3.7" y="7.9" class="st0" width="3.4" height="3.4"/>
		<g id="Group_566" transform="translate(0.338 0.179)">
			<line id="Line_142" class="st1" x1="-7.2" y1="10.7" x2="-7.2" y2="-6"/>
			<line id="Line_143" class="st1" x1="-3.7" y1="10.7" x2="-3.7" y2="-6"/>
			<line id="Line_144" class="st1" x1="-0.3" y1="10.7" x2="-0.3" y2="-6"/>
			<line id="Line_145" class="st1" x1="3.1" y1="10.7" x2="3.1" y2="-6"/>
			<line id="Line_146" class="st1" x1="6.5" y1="10.7" x2="6.5" y2="-6"/>
			<line id="Line_147" class="st1" x1="9.9" y1="10.7" x2="9.9" y2="-6"/>
		</g>
		<g id="Group_567" transform="translate(0.303)">
			<line id="Line_148" class="st1" x1="-7.1" y1="-6" x2="10" y2="-6"/>
			<line id="Line_149" class="st1" x1="-7.1" y1="-2.6" x2="10" y2="-2.6"/>
			<line id="Line_150" class="st1" x1="-7.1" y1="0.8" x2="10" y2="0.8"/>
			<line id="Line_151" class="st1" x1="-7.1" y1="4.2" x2="10" y2="4.2"/>
			<line id="Line_152" class="st1" x1="-7.2" y1="7.7" x2="9.9" y2="7.7"/>
			<line id="Line_153" class="st1" x1="-7.2" y1="11.1" x2="9.9" y2="11.1"/>
		</g>
	</g>
</g>
</svg>
