<?xml version="1.0" encoding="utf-8"?>
<!-- Generator: Adobe Illustrator 22.0.1, SVG Export Plug-In . SVG Version: 6.00 Build 0)  -->
<svg version="1.1" id="Layer_1" xmlns="http://www.w3.org/2000/svg" xmlns:xlink="http://www.w3.org/1999/xlink" x="0px" y="0px"
	 viewBox="0 0 17.5 17.1" style="enable-background:new 0 0 17.5 17.1;" xml:space="preserve">
<style type="text/css">
	.st0{fill:#FFFFFF;}
	.st1{fill:#BFCEDF;}
</style>
<g id="chart_icon_4" transform="translate(0.5 0.5)">
	<g id="Group_570" transform="translate(6.857 6.857)">
		<path id="Path_2522" class="st0" d="M-1-0.5c0.4,0,0.7,0,1.1,0.1c0.5-1.4,1.4-2.5,2.7-3.1C2.1-6.2-0.7-7.9-3.5-7.2
			s-4.4,3.5-3.7,6.3c0.3,1.1,0.9,2.1,1.8,2.8C-4.4,0.4-2.8-0.5-1-0.5z"/>
		<path id="Path_2523" class="st0" d="M5-3.9c-0.7,0-1.5,0.2-2.2,0.5c0.4,1.4,0.1,2.8-0.6,4c1.7,1.3,2.4,3.6,1.7,5.7
			C6.6,6.9,9.4,5.1,10,2.3c0.6-2.8-1.2-5.5-3.9-6.1C5.7-3.9,5.3-3.9,5-3.9L5-3.9z"/>
		<path id="Path_2524" class="st1" d="M0.1-0.4c0.8,0.2,1.5,0.5,2.1,1c0.8-1.2,1-2.7,0.6-4C1.5-2.9,0.5-1.8,0.1-0.4z"/>
		<path id="Path_2525" class="st0" d="M0,2.5c-1.8,0.8-3.8,0.6-5.3-0.6C-6.9,4.3-6.2,7.4-3.8,9c2.4,1.5,5.6,0.8,7.1-1.6
			C3.5,7,3.7,6.7,3.9,6.3C2,5.8,0.4,4.4,0,2.5z"/>
		<path id="Path_2526" class="st1" d="M0,2.5c-0.3-1-0.2-2,0.1-2.9C-2-0.9-4.2,0-5.4,1.9C-3.9,3.1-1.8,3.3,0,2.5L0,2.5z"/>
		<path id="Path_2527" class="st1" d="M2.1,0.6C1.6,1.4,0.9,2.1,0,2.5c0.5,1.9,2,3.4,3.9,3.8C4.6,4.2,3.9,1.9,2.1,0.6L2.1,0.6z"/>
		<path id="Path_2528" class="st0" d="M-0.2,1.2c0,0.4,0.1,0.9,0.2,1.3c0.9-0.4,1.7-1.1,2.2-1.9c-0.6-0.5-1.3-0.8-2.1-1
			C-0.1,0.1-0.2,0.7-0.2,1.2z"/>
	</g>
</g>
</svg>
