<svg xmlns="http://www.w3.org/2000/svg" width="31" height="30.999" viewBox="0 0 31 30.999">
  <g id="chart_icon_4" transform="translate(0.5 0.5)">
    <g id="Group_570" data-name="Group 570" transform="translate(6.857 6.857)">
      <path id="Path_2522" data-name="Path 2522" d="M886.971,183.061a5.149,5.149,0,0,1,1.1.12,5.174,5.174,0,0,1,2.733-3.053,5.156,5.156,0,1,0-8.179,5.324A5.15,5.15,0,0,1,886.971,183.061Z" transform="translate(-880.646 -176.237)" fill="#4b4b4b"/>
      <path id="Path_2523" data-name="Path 2523" d="M894.547,180.217a5.134,5.134,0,0,0-2.161.479,5.093,5.093,0,0,1-.647,4.038,5.135,5.135,0,0,1,1.71,5.682,5.159,5.159,0,1,0,1.1-10.2Z" transform="translate(-882.231 -176.806)" fill="#4b4b4b"/>
      <path id="Path_2524" data-name="Path 2524" d="M889.306,183.829a5.117,5.117,0,0,1,2.085.985,5.093,5.093,0,0,0,.647-4.038A5.173,5.173,0,0,0,889.306,183.829Z" transform="translate(-881.883 -176.885)" fill="#bfcedf"/>
      <path id="Path_2525" data-name="Path 2525" d="M888.161,187.613a5.128,5.128,0,0,1-5.344-.626,5.156,5.156,0,1,0,9.242,4.4A5.159,5.159,0,0,1,888.161,187.613Z" transform="translate(-880.84 -177.773)" fill="#4b4b4b"/>
      <path id="Path_2526" data-name="Path 2526" d="M888.3,187.214a5.064,5.064,0,0,1,.1-2.9,5.139,5.139,0,0,0-5.446,2.271,5.128,5.128,0,0,0,5.344.626Z" transform="translate(-880.975 -177.374)" fill="#bfcedf"/>
      <path id="Path_2527" data-name="Path 2527" d="M891.374,185.487a5.175,5.175,0,0,1-2.187,1.911,5.159,5.159,0,0,0,3.9,3.771,5.135,5.135,0,0,0-1.71-5.682Z" transform="translate(-881.866 -177.559)" fill="#bfcedf"/>
      <path id="Path_2528" data-name="Path 2528" d="M889,185.966a5.17,5.17,0,0,0,.164,1.269,5.176,5.176,0,0,0,2.187-1.911,5.117,5.117,0,0,0-2.086-.985A5.159,5.159,0,0,0,889,185.966Z" transform="translate(-881.839 -177.394)" fill="#4b4b4b"/>
    </g>
    <rect id="Rectangle_326" data-name="Rectangle 326" width="29.999" height="29.999" rx="4" fill="none" stroke="#dbdddf" stroke-width="1"/>
  </g>
</svg>
