<svg xmlns="http://www.w3.org/2000/svg" width="21.5" height="17.392" viewBox="0 0 21.5 17.392">
  <g id="Chat" transform="translate(-296.25 -296.804)">
    <g id="Group_460" data-name="Group 460">
      <path id="Path_2463" data-name="Path 2463" d="M309.273,306.583l2.4-.02,1.254,2.428,1.218-2.428h.811A2.009,2.009,0,0,0,317,304.509V299.6a2,2,0,0,0-2.045-2.046h-8.182a2,2,0,0,0-2.046,2.044v2.411" fill="none" stroke="#fff" stroke-linecap="round" stroke-linejoin="round" stroke-width="1.5"/>
      <path id="Path_2464" data-name="Path 2464" d="M297,304.053v4.91a2.009,2.009,0,0,0,2.045,2.054h.422l1.442,2.429,1.412-2.429h4.906a2.009,2.009,0,0,0,2.046-2.054v-4.909a2,2,0,0,0-2.046-2.045h-8.182A2,2,0,0,0,297,304.053Z" fill="none" stroke="#fff" stroke-linecap="round" stroke-linejoin="round" stroke-width="1.5"/>
    </g>
  </g>
</svg>
