<svg xmlns="http://www.w3.org/2000/svg" width="8.5" height="8.5" viewBox="0 0 8.5 8.5">
  <g id="chat-speech-balloon" transform="translate(0.25 0.25)">
    <g id="Group_110" data-name="Group 110" transform="translate(0 0)">
      <path id="Path_195" data-name="Path 195" d="M4,17.425c-2.207,0-4,1.518-4,3.38a3.169,3.169,0,0,0,1.311,2.505l-.286,1.754a.313.313,0,0,0,.114.3.254.254,0,0,0,.167.057.238.238,0,0,0,.133-.036l2.112-1.224A4.416,4.416,0,0,0,4,24.185c2.207,0,4-1.518,4-3.38S6.207,17.425,4,17.425Zm0,6.138c-.153,0-.315-.01-.477-.026a.275.275,0,0,0-.167.036l-1.669.967L1.9,23.218a.316.316,0,0,0-.129-.314,2.577,2.577,0,0,1-1.206-2.1c0-1.523,1.54-2.763,3.428-2.763s3.428,1.24,3.428,2.763S5.888,23.563,4,23.563Z" transform="translate(0 -17.425)" fill="#00328B" stroke="#00328B" stroke-width="0.5"/>
    </g>
  </g>
</svg>
