<svg xmlns="http://www.w3.org/2000/svg" width="84" height="84" viewBox="0 0 84 84">
  <g id="coding" transform="translate(-22 -22)">
    <path id="Path_1487" data-name="Path 1487" d="M57.084,60.068,51.219,63.51l5.865,3.443v3.763L46.716,64.942V62.079l10.368-5.774Z" fill="#1346A0"/>
    <path id="Path_1488" data-name="Path 1488" d="M68.352,54.11,63.209,73.89H59.793l5.142-19.78Z" fill="#1346A0"/>
    <path id="Path_1489" data-name="Path 1489" d="M81.284,62.079v2.863L70.916,70.716V66.953l5.865-3.443-5.865-3.442V56.305Z" fill="#1346A0"/>
    <path id="Path_1490" data-name="Path 1490" d="M22,70.259V57.741l11.363-2.334a32.7,32.7,0,0,1,2.9-7l-6.389-9.666,8.864-8.864L48.4,36.263a32.7,32.7,0,0,1,7-2.9L57.741,22H70.259l2.334,11.363a32.5,32.5,0,0,1,6.978,2.9l9.69-6.389,8.864,8.864L91.737,48.4a31.474,31.474,0,0,1,2.876,7L106,57.741V70.259L94.613,72.593a31.289,31.289,0,0,1-2.876,6.978l6.389,9.69-8.864,8.864-9.69-6.389a31.284,31.284,0,0,1-6.978,2.876L70.259,106H57.741L55.407,94.613a31.468,31.468,0,0,1-7-2.876l-9.666,6.389-8.864-8.864,6.389-9.69a32.51,32.51,0,0,1-2.9-6.978ZM63.988,85.826A21.826,21.826,0,1,0,42.173,63.989,21.826,21.826,0,0,0,63.988,85.826Z" fill="#1346A0"/>
  </g>
</svg>
