<svg id="Layer_5" enable-background="new 0 0 64 64" height="512" viewBox="0 0 64 64" width="512" xmlns="http://www.w3.org/2000/svg"><path d="m58 19h-7v-18h-50v62h50v-18h7c2.757 0 5-2.243 5-5v-16c0-2.757-2.243-5-5-5zm-31 6h34v4h-34zm33.816-2h-33.632c.414-1.161 1.514-2 2.816-2h28c1.302 0 2.402.839 2.816 2zm-11.816 38h-46v-58h46v16h-19c-2.757 0-5 2.243-5 5v16c0 2.757 2.243 5 5 5h19zm9-18h-28c-1.654 0-3-1.346-3-3v-9h34v9c0 1.654-1.346 3-3 3z"/><path d="m55 33c-.731 0-1.407.211-1.997.555-.608-.357-1.296-.555-2.003-.555-2.206 0-4 1.794-4 4s1.794 4 4 4c.707 0 1.395-.198 2.003-.555.59.344 1.266.555 1.997.555 2.206 0 4-1.794 4-4s-1.794-4-4-4zm-6 4c0-1.103.897-2 2-2 .175 0 .346.032.514.079-.318.572-.514 1.221-.514 1.921s.196 1.349.514 1.921c-.168.047-.339.079-.514.079-1.103 0-2-.897-2-2zm6 2c-1.103 0-2-.897-2-2s.897-2 2-2 2 .897 2 2-.897 2-2 2z"/><path d="m29 39h2v2h-2z"/><path d="m33 39h2v2h-2z"/><path d="m37 39h2v2h-2z"/><path d="m29 35h12v2h-12z"/><path d="m11 19c-1.103 0-2-.897-2-2h-2c0 1.858 1.279 3.411 3 3.858v2.142h2v-2h3v-4c0-2.206-1.794-4-4-4-1.103 0-2-.897-2-2v-2h2c1.103 0 2 .897 2 2h2c0-1.858-1.279-3.411-3-3.858v-2.142h-2v2h-3v4c0 2.206 1.794 4 4 4 1.103 0 2 .897 2 2v2z"/><path d="m45 5h2v2h-2z"/><path d="m41 5h2v2h-2z"/><path d="m37 5h2v2h-2z"/><path d="m27 9h20v2h-20z"/><path d="m27 13h20v2h-20z"/><path d="m21 47c0-4.411-3.589-8-8-8s-8 3.589-8 8 3.589 8 8 8h1v-7h7zm-9 5.917c-2.834-.478-5-2.949-5-5.917 0-2.967 2.167-5.431 5-5.91v4.91 1zm2-6.917v-4.909c2.508.423 4.494 2.401 4.917 4.909z"/><path d="m16 59h1c4.411 0 8-3.589 8-8v-1h-9zm2-7h4.917c-.423 2.509-2.408 4.494-4.917 4.917z"/><path d="m45 57h2v2h-2z"/><path d="m41 57h2v2h-2z"/><path d="m37 57h2v2h-2z"/><path d="m27 53h20v2h-20z"/><path d="m27 49h20v2h-20z"/><path d="m5 25h18v2h-18z"/><path d="m5 29h18v2h-18z"/><path d="m5 33h18v2h-18z"/></svg>