<svg id="edit-pencil" xmlns="http://www.w3.org/2000/svg" width="10" height="10" viewBox="0 0 10 10">
  <g id="Group_83" data-name="Group 83" transform="translate(0 0)">
    <path id="Path_153" data-name="Path 153" d="M6.593.115.466,6.233a.422.422,0,0,0-.119.27L.3,9.618a.368.368,0,0,0,.119.277A.394.394,0,0,0,.7,10H.7l3.027-.026a.383.383,0,0,0,.277-.105L10.187,3.7a.4.4,0,0,0,0-.56L7.153.108A.409.409,0,0,0,6.593.115ZM3.559,9.2,1.1,9.23l.04-2.555L5.228,2.591,7.7,5.061Zm4.7-4.689L5.788,2.038,6.876.951l2.467,2.47Z" transform="translate(-0.301 0)" fill="#1346A0"/>
  </g>
</svg>
