<svg xmlns="http://www.w3.org/2000/svg" width="12" height="11.428" viewBox="0 0 12 11.428">
  <path id="favaroite_icon" d="M257,234.9l-1.736-3.515a.154.154,0,0,0-.277,0l-1.733,3.515a.155.155,0,0,1-.116.085l-3.878.563a.154.154,0,0,0-.086.263l2.806,2.736a.153.153,0,0,1,.045.137l-.663,3.863a.154.154,0,0,0,.224.163l3.468-1.823a.152.152,0,0,1,.144,0l3.471,1.823a.154.154,0,0,0,.224-.163l-.662-3.863a.153.153,0,0,1,.044-.137l2.806-2.736a.154.154,0,0,0-.086-.263l-3.878-.563A.155.155,0,0,1,257,234.9Z" transform="translate(-249.131 -231.296)" fill="#ebd620"/>
</svg>
