<svg id="filter-icon-white" xmlns="http://www.w3.org/2000/svg" width="12" height="10" viewBox="0 0 12 10">
  <line id="Line_16" data-name="Line 16" y2="9.4" transform="translate(1.2 0.6)" fill="none" stroke="#fff" stroke-width="1"/>
  <line id="Line_17" data-name="Line 17" y2="9.4" transform="translate(6 0.6)" fill="none" stroke="#fff" stroke-width="1"/>
  <line id="Line_18" data-name="Line 18" y2="9.4" transform="translate(10.8 0.6)" fill="none" stroke="#fff" stroke-width="1"/>
  <g id="Ellipse_6" data-name="Ellipse 6" fill="#1346A0" stroke="#fff" stroke-width="1">
    <circle cx="1.2" cy="1.2" r="1.2" stroke="none"/>
    <circle cx="1.2" cy="1.2" r="0.7" fill="none"/>
  </g>
  <g id="Path_2649" data-name="Path 2649" transform="translate(4.8 3.508)" fill="#1346A0">
    <path d="M 1.200000047683716 1.900000095367432 C 0.814020037651062 1.900000095367432 0.5000000596046448 1.58598005771637 0.5000000596046448 1.200000047683716 C 0.5000000596046448 0.814020037651062 0.814020037651062 0.5000000596046448 1.200000047683716 0.5000000596046448 C 1.58598005771637 0.5000000596046448 1.900000095367432 0.814020037651062 1.900000095367432 1.200000047683716 C 1.900000095367432 1.58598005771637 1.58598005771637 1.900000095367432 1.200000047683716 1.900000095367432 Z" stroke="none"/>
    <path d="M 1.200000047683716 1 C 1.089720010757446 1 1 1.089720010757446 1 1.200000047683716 C 1 1.310280084609985 1.089720010757446 1.400000095367432 1.200000047683716 1.400000095367432 C 1.310280084609985 1.400000095367432 1.400000095367432 1.310280084609985 1.400000095367432 1.200000047683716 C 1.400000095367432 1.089720010757446 1.310280084609985 1 1.200000047683716 1 M 1.200000047683716 0 C 1.862740039825439 0 2.400000095367432 0.5372600555419922 2.400000095367432 1.200000047683716 C 2.400000095367432 1.862740039825439 1.862740039825439 2.400000095367432 1.200000047683716 2.400000095367432 C 0.5372600555419922 2.400000095367432 0 1.862740039825439 0 1.200000047683716 C 0 0.5372600555419922 0.5372600555419922 0 1.200000047683716 0 Z" stroke="none" fill="#fff"/>
  </g>
  <g id="Ellipse_8" data-name="Ellipse 8" transform="translate(9.6 5.846)" fill="#1346A0" stroke="#fff" stroke-width="1">
    <circle cx="1.2" cy="1.2" r="1.2" stroke="none"/>
    <circle cx="1.2" cy="1.2" r="0.7" fill="none"/>
  </g>
</svg>
