<svg xmlns="http://www.w3.org/2000/svg" width="93.754" height="79.53" viewBox="0 0 93.754 79.53">
  <g id="group" transform="translate(0 -38.84)">
    <g id="Group_628" data-name="Group 628" transform="translate(72.97 81.777)">
      <g id="Group_627" data-name="Group 627" transform="translate(0 0)">
        <path id="Path_1467" data-name="Path 1467" d="M405.745,273.32h-7.251a18.86,18.86,0,0,1,1.143,6.483v27.4a8.081,8.081,0,0,1-.466,2.707h11.987a8.13,8.13,0,0,0,8.12-8.12V286.854A13.549,13.549,0,0,0,405.745,273.32Z" transform="translate(-398.494 -273.32)" fill="#1346A0"/>
      </g>
    </g>
    <g id="Group_630" data-name="Group 630" transform="translate(0 81.777)">
      <g id="Group_629" data-name="Group 629">
        <path id="Path_1468" data-name="Path 1468" d="M19.642,279.8a18.86,18.86,0,0,1,1.143-6.483H13.534A13.549,13.549,0,0,0,0,286.855v14.939a8.13,8.13,0,0,0,8.12,8.12H20.107a8.084,8.084,0,0,1-.466-2.707Z" transform="translate(0 -273.321)" fill="#1346A0"/>
      </g>
    </g>
    <g id="Group_632" data-name="Group 632" transform="translate(25.055 74.726)">
      <g id="Group_631" data-name="Group 631">
        <path id="Path_1469" data-name="Path 1469" d="M166.939,234.815H150.363a13.549,13.549,0,0,0-13.534,13.534v27.4a2.707,2.707,0,0,0,2.707,2.707h38.23a2.707,2.707,0,0,0,2.707-2.707v-27.4A13.549,13.549,0,0,0,166.939,234.815Z" transform="translate(-136.829 -234.815)" fill="#1346A0"/>
      </g>
    </g>
    <g id="Group_634" data-name="Group 634" transform="translate(30.601 38.84)">
      <g id="Group_633" data-name="Group 633">
        <path id="Path_1470" data-name="Path 1470" d="M183.39,38.84a16.274,16.274,0,1,0,16.276,16.276A16.295,16.295,0,0,0,183.39,38.84Z" transform="translate(-167.114 -38.84)" fill="#1346A0"/>
      </g>
    </g>
    <g id="Group_636" data-name="Group 636" transform="translate(6.124 54.011)">
      <g id="Group_635" data-name="Group 635" transform="translate(0 0)">
        <path id="Path_1471" data-name="Path 1471" d="M45.616,121.689a12.167,12.167,0,1,0,12.173,12.173A12.186,12.186,0,0,0,45.616,121.689Z" transform="translate(-33.443 -121.689)" fill="#1346A0"/>
      </g>
    </g>
    <g id="Group_638" data-name="Group 638" transform="translate(63.286 54.011)">
      <g id="Group_637" data-name="Group 637" transform="translate(0 0)">
        <path id="Path_1472" data-name="Path 1472" d="M357.78,121.689a12.173,12.173,0,1,0,12.172,12.173A12.186,12.186,0,0,0,357.78,121.689Z" transform="translate(-345.607 -121.689)" fill="#1346A0"/>
      </g>
    </g>
  </g>
</svg>
