<svg xmlns="http://www.w3.org/2000/svg" width="62.364" height="62.364" viewBox="0 0 62.364 62.364">
  <g id="leader" transform="translate(0 -0.001)">
    <path id="Path_1506" data-name="Path 1506" d="M226,374.1v16.792h7.308V374.1a20.284,20.284,0,0,1-7.308,0Z" transform="translate(-198.472 -328.533)" fill="#1346A0"/>
    <path id="Path_1507" data-name="Path 1507" d="M318.892,368.2a1.827,1.827,0,0,1,.347-2.924l3.1-1.757-4.867-3.142q-.721.348-1.473.64V378.84h1.967l4.516-7.285Z" transform="translate(-277.509 -316.478)" fill="#1346A0"/>
    <path id="Path_1508" data-name="Path 1508" d="M13.8,334.829l2.869-2.684-3.563-2.02a1.827,1.827,0,0,1-.1-3.119l5.9-3.854a20.561,20.561,0,0,1-2.937-2.726A16.881,16.881,0,0,0,0,337.25v4.677a1.827,1.827,0,0,0,1.827,1.827l15.93,0-4.245-6.6A1.827,1.827,0,0,1,13.8,334.829Z" transform="translate(0 -281.397)" fill="#1346A0"/>
    <path id="Path_1509" data-name="Path 1509" d="M143.036,363.342l3.115,1.766a1.827,1.827,0,0,1,.347,2.924l-3.571,3.341,4.692,7.3h1.773V360.848q-.776-.3-1.521-.662Z" transform="translate(-125.518 -316.313)" fill="#1346A0"/>
    <path id="Path_1510" data-name="Path 1510" d="M359.451,320.425a20.553,20.553,0,0,1-2.967,2.749L362.41,327a1.827,1.827,0,0,1-.09,3.124l-3.563,2.02,2.869,2.684a1.827,1.827,0,0,1,.3,2.3l-4.112,6.633,15.781,0h0a1.827,1.827,0,0,0,1.827-1.827v-4.684A16.881,16.881,0,0,0,359.451,320.425Z" transform="translate(-313.063 -281.395)" fill="#1346A0"/>
    <path id="Path_1511" data-name="Path 1511" d="M135.687,197.687a16.74,16.74,0,0,0,16.687-16.754V177H119v3.931A16.74,16.74,0,0,0,135.687,197.687Z" transform="translate(-104.505 -155.441)" fill="#1346A0"/>
    <path id="Path_1512" data-name="Path 1512" d="M152.374,7.918a1.827,1.827,0,0,0-2.645-1.634l-5.878,2.941L137.122.7a1.827,1.827,0,0,0-2.869,0l-6.73,8.53-5.878-2.941A1.827,1.827,0,0,0,119,7.918v9.988h33.374Z" transform="translate(-104.505)" fill="#1346A0"/>
  </g>
</svg>
