<svg xmlns="http://www.w3.org/2000/svg" width="83.433" height="57.36" viewBox="0 0 83.433 57.36">
  <g id="mail" transform="translate(0 -80)">
    <g id="Group_642" data-name="Group 642" transform="translate(55.306 90.575)">
      <g id="Group_641" data-name="Group 641">
        <path id="Path_1491" data-name="Path 1491" d="M339.392,163.429l28.127,17.782V144.9Z" transform="translate(-339.392 -144.896)" fill="#1346A0"/>
      </g>
    </g>
    <g id="Group_644" data-name="Group 644" transform="translate(0 90.575)">
      <g id="Group_643" data-name="Group 643">
        <path id="Path_1492" data-name="Path 1492" d="M0,144.9V181.21l28.127-17.782Z" transform="translate(0 -144.896)" fill="#1346A0"/>
      </g>
    </g>
    <g id="Group_646" data-name="Group 646" transform="translate(0.156 80)">
      <g id="Group_645" data-name="Group 645">
        <path id="Path_1493" data-name="Path 1493" d="M79.022,80h-73A5.15,5.15,0,0,0,.96,84.438l41.56,27.382L84.08,84.438A5.15,5.15,0,0,0,79.022,80Z" transform="translate(-0.96 -80)" fill="#1346A0"/>
      </g>
    </g>
    <g id="Group_648" data-name="Group 648" transform="translate(0.167 112.252)">
      <g id="Group_647" data-name="Group 647" transform="translate(0 0)">
        <path id="Path_1494" data-name="Path 1494" d="M51.386,277.925l-7.379,4.86a2.619,2.619,0,0,1-2.868,0l-7.379-4.865L1.024,298.627a5.142,5.142,0,0,0,5.048,4.4h73a5.142,5.142,0,0,0,5.048-4.4Z" transform="translate(-1.024 -277.92)" fill="#1346A0"/>
      </g>
    </g>
  </g>
</svg>
