<svg xmlns="http://www.w3.org/2000/svg" width="16" height="17.59" viewBox="0 0 16 17.59">
  <g id="notification-normal" transform="translate(0)">
    <path id="Path_178" data-name="Path 178" d="M21.455,14.8a.631.631,0,0,0,.579.389H26.62a2.807,2.807,0,0,0,5.555,0h4.6a.292.292,0,0,0,.095-.011.64.64,0,0,0,.5-.4.618.618,0,0,0-.158-.663l-.032-.032a2.95,2.95,0,0,1-.558-.947,9.4,9.4,0,0,1-.589-3.566c0-3.514-1.326-5.365-2.43-6.3A5.582,5.582,0,0,0,31.649,2.2,2.486,2.486,0,0,0,31.123.7a2.108,2.108,0,0,0-1.7-.7,2.134,2.134,0,0,0-1.694.7,2.454,2.454,0,0,0-.537,1.525,5.639,5.639,0,0,0-1.957,1.052c-2.03,1.662-2.451,4.334-2.451,6.27a9.248,9.248,0,0,1-.6,3.535,3.865,3.865,0,0,1-.579,1.02h0A.632.632,0,0,0,21.455,14.8Zm7.953,1.525a1.568,1.568,0,0,1-1.494-1.136H30.9A1.568,1.568,0,0,1,29.408,16.327ZM24.043,9.552c0-5.66,3.7-6.2,3.85-6.217a.643.643,0,0,0,.431-.242.653.653,0,0,0,.126-.484,1.557,1.557,0,0,1,.231-1.115.852.852,0,0,1,.736-.263.9.9,0,0,1,.747.263,1.539,1.539,0,0,1,.221,1.073.614.614,0,0,0,.116.484.633.633,0,0,0,.431.252,4.109,4.109,0,0,1,1.883.926c1.315,1.1,1.978,2.9,1.978,5.344a9.919,9.919,0,0,0,.821,4.366H23.2A10.39,10.39,0,0,0,24.043,9.552Z" transform="translate(-21.409)" fill="#7f95af"/>
  </g>
</svg>
