<svg xmlns="http://www.w3.org/2000/svg" width="20" height="17.374" viewBox="0 0 20 17.374">
  <g id="photo_camera_hover" transform="translate(0 9)">
    <g id="Group_36" data-name="Group 36" transform="translate(0 -9)">
      <path id="Path_61" data-name="Path 61" d="M17.319,37.178l-2.1-.011-2.011-3a.665.665,0,0,0-.549-.308H7.242a.662.662,0,0,0-.538.3L4.626,37.167l-1.945.011A2.692,2.692,0,0,0,0,39.859v8.67a2.711,2.711,0,0,0,2.681,2.7H17.319A2.711,2.711,0,0,0,20,48.529v-8.67A2.692,2.692,0,0,0,17.319,37.178Zm1.363,11.352a1.389,1.389,0,0,1-1.363,1.385H2.681a1.389,1.389,0,0,1-1.363-1.385v-8.67A1.369,1.369,0,0,1,2.681,38.5h2.3a.662.662,0,0,0,.538-.3l2.077-3.011h4.714l2,2.989a.678.678,0,0,0,.538.3l2.462.022a1.369,1.369,0,0,1,1.363,1.363v8.67h.011Z" transform="translate(0 -33.859)" fill="#fff"/>
      <path id="Path_62" data-name="Path 62" d="M143.724,160.225a4.891,4.891,0,1,0,4.891,4.891A4.894,4.894,0,0,0,143.724,160.225Zm0,8.4a3.51,3.51,0,1,1,3.51-3.51A3.517,3.517,0,0,1,143.724,168.626Z" transform="translate(-133.671 -155.593)" fill="#fff"/>
      <ellipse id="Ellipse_2" data-name="Ellipse 2" cx="0.265" cy="0.265" rx="0.265" ry="0.265" transform="translate(15.868 6.573)" fill="#fff"/>
      <path id="Path_63" data-name="Path 63" d="M397.905,186.575a.955.955,0,1,0,.955.955A.953.953,0,0,0,397.905,186.575Zm0,1.381a.425.425,0,0,1-.426-.426.426.426,0,1,1,.852,0A.425.425,0,0,1,397.905,187.956Z" transform="translate(-381.772 -180.685)" fill="#fff"/>
    </g>
  </g>
</svg>
