<svg xmlns="http://www.w3.org/2000/svg" width="67.951" height="91.586" viewBox="0 0 67.951 91.586">
  <g id="programmer" transform="translate(-64)">
    <g id="Group_640" data-name="Group 640" transform="translate(75.818)">
      <path id="Path_1482" data-name="Path 1482" d="M150.158,0A22.183,22.183,0,0,0,128,22.158V33.975h1.477a5.909,5.909,0,0,1,5.909-5.909h6.686a38.344,38.344,0,0,0,14.033-7.912l4.393-3.906a22.156,22.156,0,0,1,4.372,11.818h.059a5.909,5.909,0,0,1,5.909,5.909h1.477V22.158A22.183,22.183,0,0,0,150.158,0Z" transform="translate(-128)" fill="#1346A0"/>
      <rect id="Rectangle_1638" data-name="Rectangle 1638" width="35" height="23" transform="translate(4.182 53)" fill="#1346A0"/>
    </g>
    <circle id="Ellipse_383" data-name="Ellipse 383" cx="1.5" cy="1.5" r="1.5" transform="translate(104 28)" fill="#1346A0"/>
    <path id="Path_1483" data-name="Path 1483" d="M215.386,215.386A7.394,7.394,0,0,0,222.772,208h-2.954a4.432,4.432,0,1,1-8.863,0H208A7.394,7.394,0,0,0,215.386,215.386Z" transform="translate(-117.411 -169.593)" fill="#1346A0"/>
    <path id="Path_1484" data-name="Path 1484" d="M124.881,120.791l-3.271-1.09v-5.83a4.437,4.437,0,0,0-4.432-4.432h-6.662a16,16,0,0,0,3.1-6,7.355,7.355,0,0,0,.414-14.553A23.8,23.8,0,0,0,109.5,77.532l-.962-1.284-5.594,4.971a36.677,36.677,0,0,1-18.26,8.757V84.327H81.728v4.581a7.364,7.364,0,0,0,.6,14.534,16.023,16.023,0,0,0,3.1,6H78.772a4.437,4.437,0,0,0-4.432,4.432v5.83l-3.269,1.09A10.322,10.322,0,0,0,64,130.6v23.156h67.951V130.6A10.324,10.324,0,0,0,124.881,120.791ZM114.225,99.1V91.985a4.4,4.4,0,0,1-.071,8.342C114.185,99.919,114.225,99.512,114.225,99.1ZM78.772,96.144a4.426,4.426,0,0,1,2.954-4.16V99.1c0,.414.04.82.071,1.228A4.425,4.425,0,0,1,78.772,96.144ZM84.681,99.1V92.967a40.4,40.4,0,0,0,4.483-1A1.459,1.459,0,0,0,90.59,93.19a1.478,1.478,0,0,0,1.477-1.477,1.462,1.462,0,0,0-.143-.616,39.466,39.466,0,0,0,12.979-7.67l3.146-2.8a20.837,20.837,0,0,1,3.222,11.082V99.1a13.167,13.167,0,0,1-4.968,10.34H89.647A13.179,13.179,0,0,1,84.681,99.1Zm-7.386,14.772a1.479,1.479,0,0,1,1.477-1.477h38.407a1.478,1.478,0,0,1,1.477,1.477v25.112H77.295Zm41.361,28.067a2.957,2.957,0,0,1-2.954,2.954H80.249a2.957,2.957,0,0,1-2.954-2.954Zm-51.7,8.863V130.6A7.376,7.376,0,0,1,72,123.592l2.335-.778v19.124a5.915,5.915,0,0,0,5.909,5.909h7.386a4.426,4.426,0,0,1,4.16,2.954Zm34.125,0H94.872a7.334,7.334,0,0,0-1.365-2.954h8.938A7.317,7.317,0,0,0,101.079,150.8Zm27.917,0H104.156a4.426,4.426,0,0,1,4.16-2.954H115.7a5.915,5.915,0,0,0,5.909-5.909V122.814l2.335.778A7.377,7.377,0,0,1,129,130.6Z" transform="translate(0 -62.169)" fill="#1346A0"/>
    <path id="Path_1485" data-name="Path 1485" d="M187.1,323.2,182,330l5.1,6.8,2.363-1.773L185.693,330l3.767-5.022Z" transform="translate(-96.211 -263.521)" fill="#fff"/>
    <path id="Path_1486" data-name="Path 1486" d="M273.6,324.973,277.367,330l-3.767,5.022,2.364,1.773,5.1-6.8-5.1-6.8Z" transform="translate(-170.898 -263.521)" fill="#fff"/>
    <rect id="Rectangle_1639" data-name="Rectangle 1639" width="15.422" height="2.954" transform="matrix(-0.287, 0.958, -0.958, -0.287, 100.866, 59.513)" fill="#fff"/>
  </g>
</svg>
