<?xml version="1.0" encoding="iso-8859-1"?>
<!-- Generator: Adobe Illustrator 19.0.0, SVG Export Plug-In . SVG Version: 6.00 Build 0)  -->
<svg version="1.1" id="Capa_1" xmlns="http://www.w3.org/2000/svg" xmlns:xlink="http://www.w3.org/1999/xlink" x="0px" y="0px"
	 viewBox="0 0 512.013 512.013" style="enable-background:new 0 0 512.013 512.013;" xml:space="preserve">
<path style="fill:#CFD8DC;" d="M338.133,370.142l-51.413,51.627c-10.005,10.02-23.6,15.627-37.76,15.573h-49.92
	c-14.16,0.054-27.755-5.553-37.76-15.573l-64-64c-20.693-20.921-20.693-54.599,0-75.52l76.587-76.373L338.133,370.142z"/>
<path style="fill:#2196F3;" d="M508.8,199.475L338.133,370.142L173.867,205.875L344.533,35.208
	c3.922-4.124,10.444-4.288,14.567-0.366c0.125,0.119,0.247,0.241,0.366,0.366L508.8,184.542c4.127,3.918,4.303,10.434,0.385,14.561
	C509.062,199.232,508.936,199.358,508.8,199.475z"/>
<path style="fill:#455A64;" d="M394.667,480.008h-384C4.776,480.008,0,475.233,0,469.342s4.776-10.667,10.667-10.667h384
	c5.891,0,10.667,4.776,10.667,10.667S400.558,480.008,394.667,480.008z"/>
<g>
</g>
<g>
</g>
<g>
</g>
<g>
</g>
<g>
</g>
<g>
</g>
<g>
</g>
<g>
</g>
<g>
</g>
<g>
</g>
<g>
</g>
<g>
</g>
<g>
</g>
<g>
</g>
<g>
</g>
</svg>
