<svg height="512pt" viewBox="0 -63 512 512" width="512pt" xmlns="http://www.w3.org/2000/svg"><path d="m251.023438 186.5h36.976562v38h-36.976562zm0 0"/><path d="m251.023438 254.5h36.976562v38h-36.976562zm0 0"/><path d="m184 186.5h36.976562v38h-36.976562zm0 0"/><path d="m184 254.5h36.976562v38h-36.976562zm0 0"/><path d="m90 254.5h64v38h-64zm0 0"/><path d="m90 186.5h64v38h-64zm0 0"/><path d="m318 254.5h36.976562v38h-36.976562zm0 0"/><path d="m385.023438 186.5h36.976562v38h-36.976562zm0 0"/><path d="m497 36.5h-46v-21.5c0-8.285156-6.714844-15-15-15s-15 6.714844-15 15v21.5h-30v-21.5c0-8.285156-6.714844-15-15-15s-15 6.714844-15 15v21.5h-30v-21.5c0-8.285156-6.714844-15-15-15s-15 6.714844-15 15v21.5h-30v-21.5c0-8.285156-6.714844-15-15-15s-15 6.714844-15 15v21.5h-30v-21.5c0-8.285156-6.714844-15-15-15s-15 6.714844-15 15v21.5h-30v-21.5c0-8.285156-6.714844-15-15-15s-15 6.714844-15 15v21.5h-30v-21.5c0-8.285156-6.714844-15-15-15s-15 6.714844-15 15v21.5h-46c-8.285156 0-15 6.714844-15 15v320c0 8.285156 6.714844 15 15 15h482c8.285156 0 15-6.714844 15-15v-320c0-8.285156-6.714844-15-15-15zm-221.5625 60h124.5c8.285156 0 15 6.71875 15 15 0 8.285156-6.714844 15-15 15h-124.5c-8.28125 0-15-6.714844-15-15 0-8.28125 6.71875-15 15-15zm-163.378906 0h80.882812c8.28125 0 15 6.71875 15 15 0 8.285156-6.71875 15-15 15h-80.882812c-8.28125 0-15-6.714844-15-15 0-8.28125 6.714844-15 15-15zm339.941406 143v68c0 8.285156-6.714844 15-15 15h-362c-8.285156 0-15-6.714844-15-15v-136c0-8.285156 6.714844-15 15-15h362c8.285156 0 15 6.714844 15 15zm0 0"/><path d="m385.023438 254.5h36.976562v38h-36.976562zm0 0"/><path d="m318 186.5h36.976562v38h-36.976562zm0 0"/></svg>