<svg height="512pt" viewBox="0 -63 512 512" width="512pt" xmlns="http://www.w3.org/2000/svg"><path d="m497 36.5h-46v-21.5c0-8.285156-6.714844-15-15-15s-15 6.714844-15 15v21.5h-30v-21.5c0-8.285156-6.714844-15-15-15s-15 6.714844-15 15v21.5h-30v-21.5c0-8.285156-6.714844-15-15-15s-15 6.714844-15 15v21.5h-30v-21.5c0-8.285156-6.714844-15-15-15s-15 6.714844-15 15v21.5h-30v-21.5c0-8.285156-6.714844-15-15-15s-15 6.714844-15 15v21.5h-30v-21.5c0-8.285156-6.714844-15-15-15s-15 6.714844-15 15v21.5h-30v-21.5c0-8.285156-6.714844-15-15-15s-15 6.714844-15 15v21.5h-46c-8.285156 0-15 6.714844-15 15v320c0 8.285156 6.714844 15 15 15h482c8.285156 0 15-6.714844 15-15v-320c0-8.285156-6.714844-15-15-15zm-15 320h-452v-290h452zm0 0"/><path d="m112.058594 126.5h80.882812c8.28125 0 15-6.714844 15-15 0-8.28125-6.71875-15-15-15h-80.882812c-8.28125 0-15 6.71875-15 15 0 8.285156 6.714844 15 15 15zm0 0"/><path d="m275.4375 126.5h124.503906c8.28125 0 15-6.714844 15-15 0-8.28125-6.71875-15-15-15h-124.503906c-8.28125 0-15 6.71875-15 15 0 8.285156 6.71875 15 15 15zm0 0"/><path d="m75 322.5h362c8.285156 0 15-6.714844 15-15v-136c0-8.28125-6.714844-15-15-15h-362c-8.285156 0-15 6.71875-15 15v136c0 8.285156 6.714844 15 15 15zm310.023438-136h36.976562v38h-36.976562zm0 68h36.976562v38h-36.976562zm-67.023438-68h36.976562v38h-36.976562zm0 68h36.976562v38h-36.976562zm-66.976562-68h36.976562v38h-36.976562zm0 68h36.976562v38h-36.976562zm-67.023438-68h36.976562v38h-36.976562zm0 68h36.976562v38h-36.976562zm-94-68h64v38h-64zm0 68h64v38h-64zm0 0"/></svg>