<svg xmlns="http://www.w3.org/2000/svg" width="69.722" height="78.089" viewBox="0 0 69.722 78.089">
  <path id="secure" d="M81.071,10.93a2.553,2.553,0,0,0-1.844-2.107L47.841.094a2.551,2.551,0,0,0-1.368,0L15.088,8.822a2.552,2.552,0,0,0-1.844,2.107c-.182,1.309-4.335,32.237,6.317,47.623a50.109,50.109,0,0,0,27,19.466,2.56,2.56,0,0,0,1.2,0,50.106,50.106,0,0,0,27-19.466C85.406,43.167,81.253,12.239,81.071,10.93ZM67.4,28.986,45.989,50.394a2.551,2.551,0,0,1-3.609,0L29.144,37.157a2.551,2.551,0,0,1,0-3.609l2.628-2.628a2.552,2.552,0,0,1,3.609,0l8.8,8.8L61.16,22.748a2.551,2.551,0,0,1,3.609,0L67.4,25.377A2.552,2.552,0,0,1,67.4,28.986Z" transform="translate(-12.296 0)" fill="#1346A0"/>
</svg>
