<?xml version="1.0" encoding="utf-8"?>
<!-- Generator: Adobe Illustrator 22.0.1, SVG Export Plug-In . SVG Version: 6.00 Build 0)  -->
<svg version="1.1" id="Layer_1" xmlns="http://www.w3.org/2000/svg" xmlns:xlink="http://www.w3.org/1999/xlink" x="0px" y="0px"
	 viewBox="0 0 12 12" style="enable-background:new 0 0 12 12;" xml:space="preserve">
<style type="text/css">
	.st0{fill:#4B4B4B;}
</style>
<g id="setting_card_icon" transform="translate(-553 -172)">
	<path id="Path_59" class="st0" d="M553.9,179.3l0.6,0.3c0.2,0.1,0.3,0.4,0.3,0.6l-0.2,0.6c-0.3,0.7,0.1,1.6,0.8,1.8
		c0.2,0.1,0.3,0.1,0.5,0.1c0.2,0,0.3,0,0.5-0.1l0.6-0.2c0.1,0,0.1,0,0.2,0c0.2,0,0.4,0.1,0.4,0.3l0.3,0.6c0.3,0.7,1.2,1,1.9,0.7
		c0.3-0.1,0.6-0.4,0.7-0.7l0.3-0.6c0.1-0.2,0.3-0.3,0.5-0.3c0.1,0,0.1,0,0.2,0l0.6,0.2c0.2,0.1,0.3,0.1,0.5,0.1l0,0
		c0.5,0,0.9-0.2,1.2-0.6c0.3-0.4,0.3-0.9,0.2-1.3l-0.2-0.6c-0.1-0.2,0-0.5,0.3-0.6l0.6-0.3c0.7-0.3,1-1.2,0.7-1.9
		c-0.1-0.3-0.4-0.6-0.7-0.7l-0.6-0.3c-0.2-0.1-0.3-0.4-0.3-0.6l0.2-0.6c0.3-0.7-0.1-1.6-0.8-1.8c-0.2-0.1-0.3-0.1-0.5-0.1
		c-0.2,0-0.3,0-0.5,0.1l-0.6,0.2c-0.1,0-0.1,0-0.2,0c-0.2,0-0.4-0.1-0.4-0.3l-0.3-0.6c-0.2-0.5-0.7-0.8-1.3-0.8
		c-0.6,0-1.1,0.3-1.3,0.8l-0.3,0.6c-0.1,0.2-0.3,0.3-0.4,0.3c-0.1,0-0.1,0-0.2,0l-0.6-0.2c-0.2-0.1-0.3-0.1-0.5-0.1
		c-0.5,0-0.9,0.2-1.2,0.6c-0.3,0.4-0.3,0.9-0.2,1.3l0.2,0.6c0.1,0.2,0,0.5-0.3,0.6l-0.6,0.3c-0.7,0.3-1,1.2-0.7,1.9
		C553.3,178.9,553.5,179.2,553.9,179.3z M554.2,177.6l0.6-0.3c0.7-0.3,1-1.1,0.7-1.8l-0.2-0.6c-0.1-0.1,0-0.3,0.1-0.4
		c0.1-0.2,0.4-0.3,0.6-0.2l0.6,0.2c0.2,0.1,0.3,0.1,0.5,0.1l0,0c0.6,0,1.1-0.3,1.3-0.8l0.3-0.6c0.1-0.2,0.3-0.3,0.4-0.3
		c0.2,0,0.4,0.1,0.4,0.3l0.3,0.6c0.2,0.5,0.7,0.8,1.3,0.8c0.2,0,0.3,0,0.5-0.1l0.6-0.2c0.2-0.1,0.4,0,0.6,0.2
		c0.1,0.1,0.1,0.3,0.1,0.4l-0.2,0.6c-0.3,0.7,0.1,1.5,0.7,1.8l0.6,0.3c0.2,0.1,0.3,0.3,0.3,0.4c0,0.2-0.1,0.4-0.3,0.4l-0.6,0.3
		c-0.7,0.3-1,1.1-0.7,1.8l0.2,0.6c0.1,0.1,0,0.3-0.1,0.4c-0.1,0.2-0.4,0.3-0.6,0.2l-0.6-0.2c-0.2-0.1-0.3-0.1-0.5-0.1
		c-0.6,0-1.1,0.3-1.3,0.8l-0.3,0.6c-0.1,0.2-0.2,0.3-0.4,0.3c-0.2,0-0.4-0.1-0.4-0.3l-0.3-0.6c-0.2-0.5-0.7-0.8-1.3-0.8
		c-0.2,0-0.3,0-0.5,0.1l-0.6,0.2c-0.2,0.1-0.4,0-0.6-0.2c-0.1-0.1-0.1-0.3-0.1-0.4l0.2-0.6c0.3-0.7-0.1-1.5-0.7-1.8l-0.6-0.3
		c-0.2-0.1-0.3-0.3-0.3-0.4C553.9,177.8,554.1,177.6,554.2,177.6z"/>
	<path id="Path_60" class="st0" d="M559,180c1.1,0,2-0.9,2-2s-0.9-2-2-2c-1.1,0-2,0.9-2,2c0,0,0,0,0,0C557,179.1,557.9,180,559,180z
		 M559,177c0.6,0,1.1,0.5,1.1,1.1s-0.5,1.1-1.1,1.1c-0.6,0-1.1-0.5-1.1-1.1c0,0,0,0,0,0C557.9,177.4,558.4,177,559,177
		C559,176.9,559,176.9,559,177L559,177z"/>
</g>
</svg>
