<svg xmlns="http://www.w3.org/2000/svg" width="15.5" height="15.5" viewBox="0 0 15.5 15.5">
  <g id="setting_icon" transform="translate(-4.25 -4.25)">
    <circle id="Ellipse_188" data-name="Ellipse 188" cx="1.909" cy="1.909" r="1.909" transform="translate(10.091 10.091)" stroke-width="1.5" stroke="#989898" stroke-linecap="round" stroke-linejoin="round" fill="none"/>
    <path id="Path_2599" data-name="Path 2599" d="M16.709,13.909a1.05,1.05,0,0,0,.21,1.158l.038.038a1.272,1.272,0,0,1,0,1.8h0a1.272,1.272,0,0,1-1.8,0h0l-.038-.038a1.058,1.058,0,0,0-1.794.751v.108a1.273,1.273,0,1,1-2.546,0V17.67a1.1,1.1,0,0,0-1.845-.751l-.038.038a1.272,1.272,0,0,1-1.8,0h0a1.272,1.272,0,0,1,0-1.8h0l.038-.038a1.058,1.058,0,0,0-.751-1.794H6.273a1.273,1.273,0,0,1,0-2.546H6.33a1.1,1.1,0,0,0,.751-1.845L7.043,8.9a1.272,1.272,0,0,1,0-1.8h0a1.272,1.272,0,0,1,1.8,0h0l.038.038a1.05,1.05,0,0,0,1.158.21h.051a1.049,1.049,0,0,0,.636-.961V6.273a1.273,1.273,0,1,1,2.546,0V6.33a1.058,1.058,0,0,0,1.794.751l.038-.038a1.272,1.272,0,0,1,1.8,0h0a1.272,1.272,0,0,1,0,1.8h0l-.038.038a1.05,1.05,0,0,0-.21,1.158v.051a1.049,1.049,0,0,0,.961.636h.108a1.273,1.273,0,1,1,0,2.546H17.67A1.049,1.049,0,0,0,16.709,13.909Z" fill="none" stroke="#989898" stroke-linecap="round" stroke-linejoin="round" stroke-width="1.5"/>
  </g>
</svg>
