<svg xmlns="http://www.w3.org/2000/svg" width="16.195" height="11.667" viewBox="0 0 16.195 11.667">
  <g id="share_people_icon" transform="translate(-33.614 -35.629)">
    <g id="Group_876" data-name="Group 876" transform="translate(38.089 37.135)">
      <path id="Path_2587" data-name="Path 2587" d="M40.814,41.182a2.159,2.159,0,1,0-2.125-2.158A2.142,2.142,0,0,0,40.814,41.182Zm.9.147h-1.8a2.746,2.746,0,0,0-2.721,2.764v2.241l.006.035.151.048a12.212,12.212,0,0,0,3.7.607,7.492,7.492,0,0,0,3.231-.617l.141-.073h.015V44.094A2.744,2.744,0,0,0,41.715,41.33Z" transform="translate(-37.192 -36.864)" fill="#989898"/>
    </g>
    <path id="Path_2588" data-name="Path 2588" d="M36.967,39.879a2.113,2.113,0,0,0,1.55-.68,2.794,2.794,0,0,1,.558-1.616,2.12,2.12,0,1,0-2.108,2.3Z" transform="translate(0.269)" fill="#989898"/>
    <g id="Group_877" data-name="Group 877" transform="translate(33.614 35.629)">
      <path id="Path_2589" data-name="Path 2589" d="M42.57,39.2a2.126,2.126,0,1,0-.558-1.616A2.794,2.794,0,0,1,42.57,39.2Z" transform="translate(-31.547 -35.629)" fill="#989898"/>
      <path id="Path_2590" data-name="Path 2590" d="M37.227,43.443a3.278,3.278,0,0,1,2.291-3.114,2.771,2.771,0,0,1-.577-.961,2.7,2.7,0,0,0-.8-.134h-1.8a2.724,2.724,0,0,0-2.721,2.72V44.16l.006.034.151.048a12.468,12.468,0,0,0,3.455.588Z" transform="translate(-33.614 -34.676)" fill="#989898"/>
    </g>
    <path id="Path_2591" data-name="Path 2591" d="M45.053,39.234h-1.8a2.7,2.7,0,0,0-.8.134,2.768,2.768,0,0,1-.575.961,3.276,3.276,0,0,1,2.289,3.114v1.386c.074,0,.155.009.227.009a7.6,7.6,0,0,0,3.23-.606l.141-.072h.016V41.954A2.724,2.724,0,0,0,45.053,39.234Z" transform="translate(2.036 0.953)" fill="#989898"/>
  </g>
</svg>
