<svg xmlns="http://www.w3.org/2000/svg" width="70" height="70" viewBox="0 0 70 70">
  <g id="story_db_icon_white" transform="translate(-548 -163)">
    <g id="Ellipse_99" data-name="Ellipse 99" transform="translate(548 163)" fill="none" stroke="#fff" stroke-width="1">
      <circle cx="35" cy="35" r="35" stroke="none"/>
      <circle cx="35" cy="35" r="34.5" fill="none"/>
    </g>
    <g id="text-line-form" transform="translate(574.813 189.502)">
      <g id="Group_19" data-name="Group 19" transform="translate(0)">
        <path id="Path_29" data-name="Path 29" d="M54.667.68A.713.713,0,0,0,53.929,0H40.4a.713.713,0,0,0-.738.68V16.32A.713.713,0,0,0,40.4,17H53.929a.713.713,0,0,0,.738-.68V.68Zm-13.525.68H53.192V15.64H41.142Z" transform="translate(-39.667 0)" fill="#fff"/>
        <path id="Path_30" data-name="Path 30" d="M126.869,99.167h-7.082a.687.687,0,1,0,0,1.36h7.082a.687.687,0,1,0,0-1.36Z" transform="translate(-115.828 -95.2)" fill="#fff"/>
        <path id="Path_31" data-name="Path 31" d="M126.869,189.833h-7.082a.687.687,0,1,0,0,1.36h7.082a.687.687,0,1,0,0-1.36Z" transform="translate(-115.828 -182.239)" fill="#fff"/>
        <path id="Path_32" data-name="Path 32" d="M126.869,286.167h-7.082a.687.687,0,1,0,0,1.36h7.082a.687.687,0,1,0,0-1.36Z" transform="translate(-115.828 -274.72)" fill="#fff"/>
      </g>
    </g>
  </g>
</svg>
