<svg xmlns="http://www.w3.org/2000/svg" width="11.337" height="13.562" viewBox="0 0 11.337 13.562"><defs><style>.a{fill:#a9c23f;stroke:#a9c23f;}</style></defs><g transform="translate(0.517 0.532)"><g transform="translate(0 0)"><path class="a" d="M95.559,3.992,90.721.076a.378.378,0,0,0-.456,0L85.428,3.992a.226.226,0,0,0-.07.284.33.33,0,0,0,.3.161H86.3a.364.364,0,0,0,.228-.076l3.319-2.687V12.269a.3.3,0,0,0,.322.261h.645a.3.3,0,0,0,.322-.261V1.674l3.319,2.687a.364.364,0,0,0,.228.076h.645a.33.33,0,0,0,.3-.161.217.217,0,0,0,.025-.1A.239.239,0,0,0,95.559,3.992Z" transform="translate(-85.334 0)"/></g></g></svg>