<svg xmlns="http://www.w3.org/2000/svg" width="71.277" height="85.433" viewBox="0 0 71.277 85.433">
  <g id="user" transform="translate(0 0)">
    <path id="Path_1473" data-name="Path 1473" d="M107.609,41.153a19.91,19.91,0,0,0,14.549-6.028,19.909,19.909,0,0,0,6.028-14.549,19.913,19.913,0,0,0-6.028-14.549,20.572,20.572,0,0,0-29.1,0,19.911,19.911,0,0,0-6.028,14.548,19.909,19.909,0,0,0,6.029,14.549A19.915,19.915,0,0,0,107.609,41.153Zm0,0" transform="translate(-72.51)" fill="#1346A0"/>
    <path id="Path_1474" data-name="Path 1474" d="M71.1,271.742a50.828,50.828,0,0,0-.692-5.4,42.534,42.534,0,0,0-1.328-5.428,26.809,26.809,0,0,0-2.231-5.062,19.1,19.1,0,0,0-3.365-4.385,14.834,14.834,0,0,0-4.833-3.037,16.7,16.7,0,0,0-6.17-1.117c-.872,0-1.716.358-3.344,1.418-1,.654-2.175,1.41-3.484,2.246a19.964,19.964,0,0,1-4.508,1.986,17.5,17.5,0,0,1-11.027,0,19.917,19.917,0,0,1-4.5-1.985c-1.3-.828-2.47-1.585-3.487-2.247-1.627-1.06-2.471-1.418-3.343-1.418a16.682,16.682,0,0,0-6.169,1.118,14.821,14.821,0,0,0-4.834,3.037,19.1,19.1,0,0,0-3.363,4.384,26.861,26.861,0,0,0-2.231,5.062,42.634,42.634,0,0,0-1.327,5.427,50.646,50.646,0,0,0-.692,5.4C.057,273.379,0,275.076,0,276.789a14.186,14.186,0,0,0,4.213,10.733,15.167,15.167,0,0,0,10.857,3.96H56.206a15.164,15.164,0,0,0,10.856-3.96,14.18,14.18,0,0,0,4.214-10.733c0-1.721-.059-3.419-.173-5.046Zm0,0" transform="translate(0 -206.049)" fill="#1346A0"/>
  </g>
</svg>
